<?xml version="1.0" encoding="UTF-8" standalone="no"?>
<!-- Created with Inkscape (http://www.inkscape.org/) -->

<svg
   width="176.53946mm"
   height="127.93565mm"
   viewBox="0 0 176.53946 127.93565"
   version="1.1"
   id="svg354"
   xml:space="preserve"
   sodipodi:docname="controllerStatus-key1.svg"
   inkscape:version="1.2.2 (732a01da63, 2022-12-09)"
   xmlns:inkscape="http://www.inkscape.org/namespaces/inkscape"
   xmlns:sodipodi="http://sodipodi.sourceforge.net/DTD/sodipodi-0.dtd"
   xmlns="http://www.w3.org/2000/svg"
   xmlns:svg="http://www.w3.org/2000/svg"><sodipodi:namedview
     id="namedview356"
     pagecolor="#ffffff"
     bordercolor="#999999"
     borderopacity="1"
     inkscape:showpageshadow="0"
     inkscape:pageopacity="0"
     inkscape:pagecheckerboard="0"
     inkscape:deskcolor="#d1d1d1"
     inkscape:document-units="mm"
     showgrid="false"
     inkscape:zoom="0.677886"
     inkscape:cx="117.27636"
     inkscape:cy="432.22607"
     inkscape:window-width="1920"
     inkscape:window-height="1009"
     inkscape:window-x="-8"
     inkscape:window-y="-8"
     inkscape:window-maximized="1"
     inkscape:current-layer="layer1" /><defs
     id="defs351" /><g
     inkscape:label="Calque 1"
     inkscape:groupmode="layer"
     id="layer1"
     transform="translate(-24.546428,-118.71292)"><path
       d="m 31.116271,210.35058 c -2.85008,-0.6652 -5.252398,-3.19127 -6.075191,-6.38813 l -0.494652,-1.92192 v -31.68249 -31.68243 l 0.54585,-1.8967 c 0.6015,-2.09014 3.056924,-5.36992 4.020195,-5.36992 0.316042,0 0.664651,-0.16453 0.774679,-0.36561 0.183161,-0.33475 75.255538,-0.57463 75.255538,-0.24046 0,0.19799 -3.76389,17.11869 -4.07911,18.33776 l -0.2836,1.09681 -0.16533,-3.65603 -0.16533,-3.65602 h -4.207803 -4.20783 l -0.092,4.1736 c -0.05065,2.29549 0.03988,4.32263 0.201156,4.50475 0.349073,0.3943 7.63819,0.44966 8.193177,0.0623 0.2511,-0.1753 0.32212,-0.0833 0.20402,0.26436 -0.0997,0.29329 -1.154534,4.968 -2.344188,10.38823 -1.189646,5.42025 -2.232874,10.13497 -2.318262,10.47715 l -0.155252,0.62211 -1.844308,0.10903 -1.844323,0.10902 -0.0909,4.47866 c -0.05004,2.46326 0.03144,4.47864 0.180898,4.47864 0.149481,0 0.523841,0.20819 0.831919,0.46265 l 0.56015,0.46262 -0.529639,2.37079 c -0.291306,1.30393 -0.629161,2.49091 -0.750787,2.63771 -0.121602,0.14682 -6.407164,0.2842 -13.967815,0.30528 -7.560652,0.0211 -14.074367,0.18357 -14.474919,0.36108 l -0.728276,0.32275 v 3.96029 c 0,2.59274 0.134116,4.11177 0.388415,4.39901 l 0.388417,0.43872 H 76.986788 90.13241 l -1.315124,6.02552 -1.315121,6.02553 -27.740218,0.0982 c -15.257119,0.054 -28.147669,0.003 -28.645673,-0.11303 z m 12.007114,-12.61464 c 0.108023,-0.31806 0.196471,-2.19831 0.196471,-4.17831 v -3.6 l -0.526349,-0.59453 -0.526362,-0.59454 -3.242691,0.0681 c -1.783483,0.0374 -3.512979,0.14788 -3.843323,0.24545 l -0.600631,0.17741 v 4.28364 c 0,2.35602 0.09713,4.39333 0.215788,4.52739 0.118666,0.13404 1.996628,0.24374 4.173213,0.24374 h 3.957425 z m 14.196347,-3.94928 c -0.01493,-2.97148 -0.145152,-4.43084 -0.411917,-4.61707 -0.494591,-0.34527 -6.475975,-0.47445 -7.211273,-0.15574 l -0.550449,0.23858 v 4.54183 4.54182 l 4.097756,-0.10225 4.097744,-0.10239 -0.02189,-4.34478 z m -0.60747,-10.78287 0.607041,-0.26938 0.01957,-4.54917 0.01958,-4.54919 -10.822574,-0.18279 c -5.952426,-0.1006 -11.077472,-0.0536 -11.389025,0.10432 l -0.566438,0.28707 v 4.31852 4.31852 l 0.728289,0.39673 c 0.83203,0.45325 20.406241,0.56796 21.403473,0.12547 z m 14.872533,-0.47571 0.542572,-0.61371 v -3.82018 c 0,-2.67593 -0.125235,-3.9376 -0.418095,-4.21213 -0.61497,-0.57648 -7.556627,-0.62828 -8.16187,-0.0609 l -0.483068,0.45283 v 4.0891 4.0891 l 0.890115,0.41389 c 0.493661,0.22953 2.270342,0.38309 3.988951,0.34477 l 3.098812,-0.0691 z m 13.834724,0.41802 0.626078,-0.37847 v -4.55719 -4.55718 h -4.010898 -4.010911 l -0.217293,0.97787 c -0.119522,0.53781 -0.180775,2.52437 -0.136159,4.41457 l 0.08111,3.43672 0.658607,0.52108 c 0.786568,0.62228 6.039162,0.72914 7.009456,0.1426 z m -35.221462,-15.48583 0.566438,-0.48569 v -4.19684 -4.19684 l -0.824431,-0.42429 c -0.543428,-0.27967 -3.108476,-0.42033 -7.525553,-0.41266 l -6.701122,0.0111 -0.566451,0.48567 -0.566438,0.48568 v 4.25552 c 0,2.34053 0.03646,4.28871 0.08087,4.32926 0.04453,0.0406 3.358177,0.17013 7.363716,0.28796 4.00554,0.11786 7.355629,0.24393 7.44464,0.28024 0.08906,0.0363 0.416736,-0.15254 0.728277,-0.41965 z m 14.560639,-0.34937 c 0.13079,-0.23172 0.240035,-2.2664 0.242763,-4.52149 l 0.0049,-4.10015 -0.626089,-0.37847 c -0.344338,-0.20815 -1.956123,-0.37846 -3.581757,-0.37846 -1.625621,0 -3.237406,0.17031 -3.581756,0.37846 l -0.626078,0.37847 v 4.35619 4.35621 l 0.461084,0.29236 c 0.705607,0.44742 7.426682,0.11331 7.706879,-0.38312 z m 14.326831,0.12796 0.486481,-0.45602 v -3.95615 -3.95613 l -0.719384,-0.56913 -0.719382,-0.56913 h -3.103743 -3.103741 l -0.708398,0.74545 -0.708397,0.74544 v 3.56043 c 0,2.43974 0.140919,3.78744 0.447688,4.28159 l 0.447675,0.72116 3.597367,-0.0457 c 2.343083,-0.0298 3.766973,-0.20474 4.083834,-0.50177 z m 11.194392,0.36471 h 3.210333 v -4.49692 c 0,-3.01012 -0.128416,-4.64196 -0.388415,-4.93562 -0.508281,-0.57413 -6.093569,-0.58532 -7.202848,-0.0145 l -0.824432,0.42429 v 4.11963 4.11964 l 0.527267,0.59554 c 0.289984,0.32756 0.738858,0.50382 0.997513,0.39171 0.25863,-0.11206 1.914896,-0.20381 3.680582,-0.20381 z M 43.04498,151.44039 c 0.344032,-0.61248 0.345415,-7.64056 0.0012,-8.25253 l -0.263328,-0.46875 -4.020464,0.10322 -4.020453,0.10309 -0.09065,4.44969 -0.09065,4.4497 0.544198,0.12035 c 1.498343,0.33132 7.69133,-0.0625 7.939794,-0.50474 z m 14.138665,0.44236 c 0.11891,4e-5 0.198992,-2.01535 0.177864,-4.47863 l -0.03842,-4.4787 -4.088483,-0.10226 -4.088496,-0.10225 v 4.56857 4.56859 l 3.479558,0.11413 c 1.913758,0.0627 3.673545,0.0683 3.910644,0.0124 0.237086,-0.056 0.528392,-0.1017 0.647351,-0.1017 z m 14.539121,-0.44457 c 0.548003,-0.50961 0.561986,-7.64035 0.01615,-8.25684 -0.259621,-0.29326 -1.697016,-0.43872 -4.335051,-0.43872 h -3.946623 l -0.196471,0.5783 c -0.108023,0.31807 -0.196471,2.29762 -0.196471,4.39901 v 3.8207 l 0.625172,0.26241 c 0.907584,0.38097 7.555955,0.079 8.033259,-0.36486 z m 14.322831,-4.12554 v -4.57002 h -4.011363 -4.011363 l -0.15237,0.457 c -0.215115,0.64523 -0.234371,7.54471 -0.02275,8.16751 l 0.17516,0.51553 h 4.011363 4.011363 z"
       style="fill:#ffffff;stroke-width:0.344003"
       id="path1325" /></g></svg>
