<?xml version="1.0" encoding="UTF-8" standalone="no"?>
<!-- Created with Inkscape (http://www.inkscape.org/) -->

<svg
   width="176.53946mm"
   height="127.93565mm"
   viewBox="0 0 176.53946 127.93565"
   version="1.1"
   id="svg354"
   xml:space="preserve"
   sodipodi:docname="controllerStatus-con1.svg"
   inkscape:version="1.2.2 (732a01da63, 2022-12-09)"
   xmlns:inkscape="http://www.inkscape.org/namespaces/inkscape"
   xmlns:sodipodi="http://sodipodi.sourceforge.net/DTD/sodipodi-0.dtd"
   xmlns="http://www.w3.org/2000/svg"
   xmlns:svg="http://www.w3.org/2000/svg"><sodipodi:namedview
     id="namedview356"
     pagecolor="#ffffff"
     bordercolor="#999999"
     borderopacity="1"
     inkscape:showpageshadow="0"
     inkscape:pageopacity="0"
     inkscape:pagecheckerboard="0"
     inkscape:deskcolor="#d1d1d1"
     inkscape:document-units="mm"
     showgrid="false"
     inkscape:zoom="0.677886"
     inkscape:cx="117.27636"
     inkscape:cy="240.45341"
     inkscape:window-width="1920"
     inkscape:window-height="1009"
     inkscape:window-x="-8"
     inkscape:window-y="-8"
     inkscape:window-maximized="1"
     inkscape:current-layer="layer1" /><defs
     id="defs351" /><g
     inkscape:label="Calque 1"
     inkscape:groupmode="layer"
     id="layer1"
     transform="translate(-24.546428,-118.71292)"><path
       d="m 38.211316,238.98176 c -16.079119,-4.8905 -17.451017,-31.08863 -3.793508,-72.44195 1.363994,-4.13002 3.141348,-9.10749 4.05352,-11.35183 0.346442,-0.85241 0.629894,-1.64878 0.629894,-1.76973 0,-1.86511 5.281122,-12.16519 6.677572,-13.02366 1.482536,-0.91141 1.607428,-1.10319 2.018244,-3.09905 0.663414,-3.22311 1.193568,-3.81143 5.293147,-5.87396 13.159101,-6.62044 19.731855,-7.47943 25.731014,-3.36277 2.100883,1.44165 2.100883,1.44165 14.205755,1.44165 13.628486,0 12.659126,-0.24219 11.650926,2.91087 -0.38897,1.21652 -0.46182,1.2617 -1.87551,1.16351 -7.436045,-0.51652 -9.607595,12.38047 -2.42551,14.40516 0.5235,0.14757 0.84523,0.44531 0.75816,0.70162 -0.0832,0.2449 -1.949004,8.57403 -4.146207,18.50919 -2.509065,11.34531 -4.032666,17.62203 -4.096367,16.87576 -0.101416,-1.18822 -0.101416,-1.18822 -3.641391,-1.18822 -3.539945,0 -3.539945,0 -3.539945,-3.65601 0,-3.65602 0,-3.65602 -3.236796,-3.65602 -3.236794,0 -3.236794,0 -3.236794,3.65602 0,3.65601 0,3.65601 -3.236795,3.65601 -3.236807,0 -3.236807,0 -3.236807,3.65603 0,3.65602 0,3.65602 3.236807,3.65602 3.236795,0 3.236795,0 3.236795,4.02162 0,6.2892 6.396592,6.37853 6.543554,0.0913 0.09187,-3.93022 0.09187,-3.93022 3.095136,-4.03547 3.003285,-0.10529 3.003285,-0.10529 2.790384,0.91401 -0.117075,0.56058 -0.864742,3.89837 -1.661441,7.41729 -0.796695,3.51892 -1.700504,7.54968 -2.008447,8.95725 -0.559915,2.55921 -0.559915,2.55921 -8.948293,2.74201 -6.387795,0.1392 -8.581396,0.30597 -9.197613,0.69925 -3.394106,2.16617 -12.207476,10.7659 -23.918891,23.33909 -2.718238,2.91826 -5.109791,5.19924 -5.437124,5.18577 -0.3214,-0.0138 -1.34896,-0.25662 -2.283469,-0.54085 z M 66.128491,168.2944 c 8.634246,-4.50148 5.690249,-19.18033 -3.815381,-19.02362 -9.011162,0.14854 -11.84311,14.08538 -3.821315,18.80577 1.930788,1.13615 5.670677,1.24283 7.636696,0.21785 z m 27.002388,-6.47067 c 2.001798,-1.90257 0.938225,-5.26874 -1.664695,-5.26874 -3.717987,0 -3.751874,6.05974 -0.03462,6.1905 0.386899,0.0138 1.151595,-0.40118 1.699317,-0.92176 z"
       style="fill:#ffffff;stroke-width:0.344003"
       id="path1348" /></g></svg>
