<?xml version="1.0" encoding="UTF-8" standalone="no"?>
<!-- Created with Inkscape (http://www.inkscape.org/) -->

<svg
   width="176.53946mm"
   height="127.93565mm"
   viewBox="0 0 176.53946 127.93565"
   version="1.1"
   id="svg354"
   xml:space="preserve"
   sodipodi:docname="controllerStatus-con2.svg"
   inkscape:version="1.2.2 (732a01da63, 2022-12-09)"
   xmlns:inkscape="http://www.inkscape.org/namespaces/inkscape"
   xmlns:sodipodi="http://sodipodi.sourceforge.net/DTD/sodipodi-0.dtd"
   xmlns="http://www.w3.org/2000/svg"
   xmlns:svg="http://www.w3.org/2000/svg"><sodipodi:namedview
     id="namedview356"
     pagecolor="#ffffff"
     bordercolor="#999999"
     borderopacity="1"
     inkscape:showpageshadow="0"
     inkscape:pageopacity="0"
     inkscape:pagecheckerboard="0"
     inkscape:deskcolor="#d1d1d1"
     inkscape:document-units="mm"
     showgrid="false"
     inkscape:zoom="0.677886"
     inkscape:cx="117.27636"
     inkscape:cy="432.22607"
     inkscape:window-width="1920"
     inkscape:window-height="1009"
     inkscape:window-x="-8"
     inkscape:window-y="-8"
     inkscape:window-maximized="1"
     inkscape:current-layer="layer1" /><defs
     id="defs351" /><g
     inkscape:label="Calque 1"
     inkscape:groupmode="layer"
     id="layer1"
     transform="translate(-24.546428,-118.71292)"><path
       style="fill:#ffffff;stroke-width:0.348044"
       d="m 176.32659,235.11394 c -14.42319,-15.07692 -22.65577,-22.80442 -25.58774,-24.0179 -0.60717,-0.2513 -6.47615,-0.38604 -16.81494,-0.38604 -8.73522,0 -15.88221,-0.13541 -15.88221,-0.30095 0,-0.16553 1.57742,-7.19879 3.50536,-15.62949 8.49516,-37.14828 7.03916,-32.25523 9.43959,-31.72296 0.60826,0.13486 1.15244,-0.0907 1.90515,-0.78954 2.01808,-1.87375 1.02541,-5.30055 -1.53547,-5.30055 -1.31916,0 -1.50071,1.36696 1.62823,-12.25949 1.47603,-6.4281 2.82998,-12.38665 3.00879,-13.24124 0.3251,-1.55381 0.3251,-1.55381 2.25238,-1.55381 1.65939,0 2.22619,-0.20039 4.07781,-1.44165 6.14092,-4.11665 12.869,-3.25767 26.33906,3.36277 4.19646,2.06253 4.73915,2.65085 5.41823,5.87396 0.42053,1.99586 0.54837,2.18764 2.06595,3.09905 1.42311,0.85468 6.83536,11.15509 6.83536,13.00883 0,0.11276 0.34999,1.07371 0.77774,2.13535 0.42775,1.06162 1.19064,3.08189 1.69534,4.48945 0.50467,1.40757 1.04547,2.88825 1.20175,3.29041 0.15628,0.40218 0.59676,1.71835 0.97886,2.92482 0.3821,1.2065 0.82928,2.52267 0.99372,2.92483 1.35989,3.32561 4.93979,16.72943 6.59107,24.67812 5.43125,26.14432 -0.48074,45.70026 -13.81577,45.70026 -0.24425,0 -2.52947,-2.1799 -5.07826,-4.84423 z m -33.619,-39.22602 c 9.3774,-4.32343 5.89673,-20.03476 -4.23311,-19.10782 -9.06634,0.82962 -11.23987,14.39859 -3.0302,18.91716 1.65739,0.91221 5.48061,1.01257 7.26331,0.19066 z m 18.5339,-19.68594 c 2.79451,-1.28839 3.57516,-5.60958 1.4175,-7.84628 -3.33798,-3.46024 -8.80129,0.48561 -7.05025,5.09201 1.01628,2.67348 3.34171,3.81055 5.63275,2.75427 z m -10.06691,-12.19542 c 3.59846,-2.39202 2.24708,-8.58781 -1.88829,-8.65741 -2.09196,-0.0352 -3.30253,0.67642 -4.10566,2.41351 -2.05276,4.44 2.1389,8.80647 5.99395,6.2439 z m 21.37071,-0.0401 c 3.64173,-2.29659 2.07398,-8.64521 -2.13487,-8.64521 -4.69976,0 -6.17401,6.82175 -1.93821,8.96862 1.52956,0.77523 2.44636,0.70244 4.07308,-0.32341 z m -10.9205,-11.60152 c 1.52539,-0.79873 2.21675,-2.10586 2.21675,-4.19115 0,-5.29754 -6.5101,-6.54324 -8.22972,-1.57474 -1.39776,4.03857 2.38478,7.66566 6.01297,5.76589 z"
       id="path568"
       sodipodi:nodetypes="sssscsssssssssssssssssssssssssssssssssssssss" /></g></svg>
