<?xml version="1.0" encoding="UTF-8" standalone="no"?>
<!-- Created with Inkscape (http://www.inkscape.org/) -->

<svg
   width="176.53946mm"
   height="127.93565mm"
   viewBox="0 0 176.53946 127.93565"
   version="1.1"
   id="svg354"
   xml:space="preserve"
   sodipodi:docname="controllerStatus-key2.svg"
   inkscape:version="1.2.2 (732a01da63, 2022-12-09)"
   xmlns:inkscape="http://www.inkscape.org/namespaces/inkscape"
   xmlns:sodipodi="http://sodipodi.sourceforge.net/DTD/sodipodi-0.dtd"
   xmlns="http://www.w3.org/2000/svg"
   xmlns:svg="http://www.w3.org/2000/svg"><sodipodi:namedview
     id="namedview356"
     pagecolor="#ffffff"
     bordercolor="#999999"
     borderopacity="1"
     inkscape:showpageshadow="0"
     inkscape:pageopacity="0"
     inkscape:pagecheckerboard="0"
     inkscape:deskcolor="#d1d1d1"
     inkscape:document-units="mm"
     showgrid="false"
     inkscape:zoom="0.677886"
     inkscape:cx="117.27636"
     inkscape:cy="432.22607"
     inkscape:window-width="1920"
     inkscape:window-height="1009"
     inkscape:window-x="-8"
     inkscape:window-y="-8"
     inkscape:window-maximized="1"
     inkscape:current-layer="layer1" /><defs
     id="defs351" /><g
     inkscape:label="Calque 1"
     inkscape:groupmode="layer"
     id="layer1"
     transform="translate(-24.546428,-118.71292)"><path
       style="fill:#ffffff;stroke-width:0.348044"
       d="m 156.10709,210.18488 c -21.00209,-0.0511 -38.18564,-0.15603 -38.18564,-0.23317 0,-0.0771 0.59639,-2.72723 1.32532,-5.88913 0.72892,-3.1619 1.32531,-5.81271 1.32531,-5.89067 0,-0.0779 5.88057,-0.14176 13.06794,-0.14176 h 13.06794 l 0.2343,-0.41834 c 0.12887,-0.23007 0.23429,-2.23475 0.23429,-4.45483 v -4.03651 l -0.62889,-0.2723 c -0.34591,-0.14975 -5.82624,-0.28385 -12.17853,-0.29797 l -11.54958,-0.0257 0.17617,-0.8226 c 0.0969,-0.45245 0.36292,-1.73214 0.59117,-2.84377 l 0.415,-2.02115 3.25869,0.14443 c 2.13717,0.0948 3.6029,-0.0124 4.25885,-0.31272 l 1.00017,-0.45714 -0.0927,-4.42977 -0.0927,-4.42977 -2.89912,-0.10557 c -1.99537,-0.0727 -2.89941,-0.24365 -2.90003,-0.5484 3.53043,-14.50789 4.9211,-22.17701 7.65621,-34.26095 0.93301,-4.12216 1.79761,-7.61661 1.92133,-7.76545 0.12373,-0.14884 13.49466,-0.27558 29.71322,-0.28166 l 29.48826,-0.0111 1.54662,0.86399 c 2.11899,1.18373 2.49847,1.58229 3.42253,3.59444 l 0.80267,1.74742 v 33.75877 33.75875 l -0.95914,1.66886 c -1.03351,1.79824 -2.91855,3.59273 -3.77402,3.59273 -0.29095,0 -0.61002,0.14466 -0.70904,0.32146 -0.32701,0.58383 -1.07024,0.59322 -39.5357,0.49961 z m 5.54977,-16.68564 v -4.53091 l -0.5241,-0.22192 c -0.67607,-0.28628 -6.37041,-0.27966 -7.34496,0.008 l -0.74549,0.22046 v 4.52738 4.52739 h 4.30727 4.30728 z m 14.83683,-0.085 0.0927,-4.43314 -0.75536,-0.2233 c -1.24896,-0.36921 -6.88125,-0.26117 -7.56937,0.14519 l -0.64088,0.37846 v 3.79606 c 0,2.08784 0.0922,4.06107 0.2048,4.38496 l 0.20479,0.58891 4.18532,-0.10198 4.18529,-0.10197 z m 14.45032,4.03763 c 0.38099,-1.09553 0.22052,-8.02849 -0.19649,-8.48862 -0.43206,-0.47676 -6.08882,-0.56086 -7.55429,-0.11234 l -0.82833,0.25353 -0.10794,3.59612 c -0.0594,1.97785 -0.0193,3.98614 0.0892,4.46283 l 0.19715,0.86675 h 4.09985 4.09984 z m -44.56698,-14.87376 0.78962,-0.45162 -0.0112,-4.14936 c -0.006,-2.31033 -0.16026,-4.31428 -0.34805,-4.52149 -0.44791,-0.49425 -7.68863,-0.36924 -8.24731,0.1424 -0.46879,0.4293 -0.61865,7.46987 -0.17442,8.1941 0.76388,1.24535 6.24513,1.78446 7.99095,0.78597 z m 29.35544,0.0332 0.85366,-0.42918 -0.0925,-4.41502 -0.0926,-4.41506 h -11.59649 -11.59651 l -0.0926,4.41796 -0.0925,4.41794 0.75525,0.40154 c 1.08881,0.57886 20.80748,0.59849 21.95444,0.0218 z m 14.67627,-0.13995 0.73637,-0.56914 -0.005,-3.54388 c -0.003,-1.94914 -0.0921,-3.9041 -0.19906,-4.34436 l -0.19455,-0.80046 -3.65775,-0.11359 -3.65776,-0.11358 -0.63813,0.49474 -0.63812,0.49474 0.10482,4.06529 0.10481,4.06529 0.82833,0.46161 c 0.47114,0.26255 2.04661,0.46392 3.65372,0.46699 l 2.8254,0.006 0.73639,-0.56914 z m -50.62697,-15.3295 c 0.1986,-0.13542 0.33872,-1.95055 0.33872,-4.38772 v -4.15674 l -0.52068,-0.57451 -0.52065,-0.57452 h -3.21589 -3.21591 l -0.73637,0.56913 -0.73639,0.56913 v 3.81809 3.8181 l 0.57983,0.6398 0.57983,0.63981 3.5544,-0.0648 c 1.95491,-0.0357 3.70682,-0.16873 3.89311,-0.29577 z m 14.94256,-0.8099 c 0.16827,-0.48837 0.30595,-2.3861 0.30595,-4.21718 v -3.32924 l -0.54834,-0.66858 -0.54835,-0.66859 -3.34478,0.006 c -1.83961,0.003 -3.5684,0.16151 -3.84175,0.35204 l -0.497,0.34645 -0.11645,3.32315 c -0.064,1.82773 -0.0209,3.88484 0.0958,4.57136 l 0.21221,1.24822 3.54885,0.10363 c 4.18307,0.12215 4.33609,0.0876 4.73388,-1.06683 z m 21.41039,0.56247 0.43193,-0.39554 v -4.1468 -4.14679 l -0.64087,-0.37846 c -0.38089,-0.22493 -3.34674,-0.37847 -7.31101,-0.37847 -3.96429,0 -6.93014,0.15354 -7.31103,0.37847 l -0.64086,0.37846 0.005,4.10015 c 0.005,4.09171 0.12715,4.77471 0.90278,5.05075 0.94091,0.33486 14.15149,-0.084 14.56401,-0.46177 z m 14.80929,-0.15311 c 0.11057,-0.31807 0.2011,-2.23823 0.2011,-4.26704 v -3.68874 l -0.54834,-0.66858 -0.54833,-0.66859 h -3.40883 -3.40881 l -0.51577,0.81256 -0.51579,0.81254 v 3.41591 c 0,1.87875 0.15434,3.73413 0.34298,4.12307 l 0.343,0.70718 h 3.92884 3.92883 z m -14.82718,-15.29477 0.47097,-0.19942 -0.0934,-4.30282 -0.0934,-4.30282 -4.11546,-0.10309 -4.11547,-0.10322 -0.26956,0.46875 c -0.14826,0.25782 -0.27185,2.22918 -0.27463,4.38081 l -0.005,3.91207 0.47282,0.29236 c 0.51415,0.31791 7.25636,0.28209 8.02323,-0.0426 z m 14.61413,-0.037 0.41415,-0.15338 v -3.82039 c 0,-2.10123 -0.0905,-4.08063 -0.2011,-4.39871 l -0.20112,-0.5783 h -4.07071 -4.07072 l -0.2011,0.5783 c -0.6577,1.89119 -0.11797,8.45405 0.71009,8.63357 0.69394,0.15045 7.10212,-0.0691 7.62051,-0.26109 z m -43.63601,-0.085 c 0.13641,-2.25851 0.0348,-8.11285 -0.14651,-8.43649 -0.33631,-0.60044 -7.87328,-0.59207 -8.41833,0.01 -0.41662,0.45971 -0.57562,7.03282 -0.19649,8.12302 l 0.20112,0.5783 h 4.27181 c 2.34951,0 4.27929,-0.12339 4.2884,-0.27419 z m 14.56191,-4.29583 v -4.57002 h -4.30728 -4.30727 v 4.57002 4.57002 h 4.30727 4.30728 z"
       id="path584"
       sodipodi:nodetypes="ssssscsscsscssccccccsccsscsccccsssssccscccccccccsscssccccssscsscccsccssssccccccccccscccccscccccccsccccsscccccccccccsssssccccsccscsssccccssscssscsscccccccsscccsccccccsscsccscsscccssssccscsssccccccccc" /></g></svg>
