<?xml version="1.0" encoding="UTF-8" standalone="no"?>
<!-- Created with Inkscape (http://www.inkscape.org/) -->

<svg
   width="176.53946mm"
   height="127.93565mm"
   viewBox="0 0 176.53946 127.93565"
   version="1.1"
   id="svg354"
   xml:space="preserve"
   sodipodi:docname="controllerStatus.svg"
   inkscape:version="1.2.2 (732a01da63, 2022-12-09)"
   xmlns:inkscape="http://www.inkscape.org/namespaces/inkscape"
   xmlns:sodipodi="http://sodipodi.sourceforge.net/DTD/sodipodi-0.dtd"
   xmlns="http://www.w3.org/2000/svg"
   xmlns:svg="http://www.w3.org/2000/svg"><sodipodi:namedview
     id="namedview356"
     pagecolor="#ffffff"
     bordercolor="#999999"
     borderopacity="1"
     inkscape:showpageshadow="0"
     inkscape:pageopacity="0"
     inkscape:pagecheckerboard="0"
     inkscape:deskcolor="#d1d1d1"
     inkscape:document-units="mm"
     showgrid="false"
     inkscape:zoom="0.677886"
     inkscape:cx="117.27636"
     inkscape:cy="240.45341"
     inkscape:window-width="1920"
     inkscape:window-height="1009"
     inkscape:window-x="-8"
     inkscape:window-y="-8"
     inkscape:window-maximized="1"
     inkscape:current-layer="layer1" /><defs
     id="defs351" /><g
     inkscape:label="Calque 1"
     inkscape:groupmode="layer"
     id="layer1"
     transform="translate(-24.546428,-118.71292)"><path
       style="fill:#000000;stroke-width:0.348044"
       d="m 176.32659,235.11394 c -14.42319,-15.07692 -22.65577,-22.80442 -25.58774,-24.0179 -0.60717,-0.2513 -6.47615,-0.38604 -16.81494,-0.38604 -8.73522,0 -15.88221,-0.13541 -15.88221,-0.30095 0,-0.16553 1.57742,-7.19879 3.50536,-15.62949 8.49516,-37.14828 7.03916,-32.25523 9.43959,-31.72296 0.60826,0.13486 1.15244,-0.0907 1.90515,-0.78954 2.01808,-1.87375 1.02541,-5.30055 -1.53547,-5.30055 -1.31916,0 -1.50071,1.36696 1.62823,-12.25949 1.47603,-6.4281 2.82998,-12.38665 3.00879,-13.24124 0.3251,-1.55381 0.3251,-1.55381 2.25238,-1.55381 1.65939,0 2.22619,-0.20039 4.07781,-1.44165 6.14092,-4.11665 12.869,-3.25767 26.33906,3.36277 4.19646,2.06253 4.73915,2.65085 5.41823,5.87396 0.42053,1.99586 0.54837,2.18764 2.06595,3.09905 1.42311,0.85468 6.83536,11.15509 6.83536,13.00883 0,0.11276 0.34999,1.07371 0.77774,2.13535 0.42775,1.06162 1.19064,3.08189 1.69534,4.48945 0.50467,1.40757 1.04547,2.88825 1.20175,3.29041 0.15628,0.40218 0.59676,1.71835 0.97886,2.92482 0.3821,1.2065 0.82928,2.52267 0.99372,2.92483 1.35989,3.32561 4.93979,16.72943 6.59107,24.67812 5.43125,26.14432 -0.48074,45.70026 -13.81577,45.70026 -0.24425,0 -2.52947,-2.1799 -5.07826,-4.84423 z m -33.619,-39.22602 c 9.3774,-4.32343 5.89673,-20.03476 -4.23311,-19.10782 -9.06634,0.82962 -11.23987,14.39859 -3.0302,18.91716 1.65739,0.91221 5.48061,1.01257 7.26331,0.19066 z m 18.5339,-19.68594 c 2.79451,-1.28839 3.57516,-5.60958 1.4175,-7.84628 -3.33798,-3.46024 -8.80129,0.48561 -7.05025,5.09201 1.01628,2.67348 3.34171,3.81055 5.63275,2.75427 z m -10.06691,-12.19542 c 3.59846,-2.39202 2.24708,-8.58781 -1.88829,-8.65741 -2.09196,-0.0352 -3.30253,0.67642 -4.10566,2.41351 -2.05276,4.44 2.1389,8.80647 5.99395,6.2439 z m 21.37071,-0.0401 c 3.64173,-2.29659 2.07398,-8.64521 -2.13487,-8.64521 -4.69976,0 -6.17401,6.82175 -1.93821,8.96862 1.52956,0.77523 2.44636,0.70244 4.07308,-0.32341 z m -10.9205,-11.60152 c 1.52539,-0.79873 2.21675,-2.10586 2.21675,-4.19115 0,-5.29754 -6.5101,-6.54324 -8.22972,-1.57474 -1.39776,4.03857 2.38478,7.66566 6.01297,5.76589 z"
       id="path568"
       sodipodi:nodetypes="sssscsssssssssssssssssssssssssssssssssssssss" /><path
       style="fill:#000000;stroke-width:0.348044"
       d="m 156.10709,210.18488 c -21.00209,-0.0511 -38.18564,-0.15603 -38.18564,-0.23317 0,-0.0771 0.59639,-2.72723 1.32532,-5.88913 0.72892,-3.1619 1.32531,-5.81271 1.32531,-5.89067 0,-0.0779 5.88057,-0.14176 13.06794,-0.14176 h 13.06794 l 0.2343,-0.41834 c 0.12887,-0.23007 0.23429,-2.23475 0.23429,-4.45483 v -4.03651 l -0.62889,-0.2723 c -0.34591,-0.14975 -5.82624,-0.28385 -12.17853,-0.29797 l -11.54958,-0.0257 0.17617,-0.8226 c 0.0969,-0.45245 0.36292,-1.73214 0.59117,-2.84377 l 0.415,-2.02115 3.25869,0.14443 c 2.13717,0.0948 3.6029,-0.0124 4.25885,-0.31272 l 1.00017,-0.45714 -0.0927,-4.42977 -0.0927,-4.42977 -2.89912,-0.10557 c -1.99537,-0.0727 -2.89941,-0.24365 -2.90003,-0.5484 3.53043,-14.50789 4.9211,-22.17701 7.65621,-34.26095 0.93301,-4.12216 1.79761,-7.61661 1.92133,-7.76545 0.12373,-0.14884 13.49466,-0.27558 29.71322,-0.28166 l 29.48826,-0.0111 1.54662,0.86399 c 2.11899,1.18373 2.49847,1.58229 3.42253,3.59444 l 0.80267,1.74742 v 33.75877 33.75875 l -0.95914,1.66886 c -1.03351,1.79824 -2.91855,3.59273 -3.77402,3.59273 -0.29095,0 -0.61002,0.14466 -0.70904,0.32146 -0.32701,0.58383 -1.07024,0.59322 -39.5357,0.49961 z m 5.54977,-16.68564 v -4.53091 l -0.5241,-0.22192 c -0.67607,-0.28628 -6.37041,-0.27966 -7.34496,0.008 l -0.74549,0.22046 v 4.52738 4.52739 h 4.30727 4.30728 z m 14.83683,-0.085 0.0927,-4.43314 -0.75536,-0.2233 c -1.24896,-0.36921 -6.88125,-0.26117 -7.56937,0.14519 l -0.64088,0.37846 v 3.79606 c 0,2.08784 0.0922,4.06107 0.2048,4.38496 l 0.20479,0.58891 4.18532,-0.10198 4.18529,-0.10197 z m 14.45032,4.03763 c 0.38099,-1.09553 0.22052,-8.02849 -0.19649,-8.48862 -0.43206,-0.47676 -6.08882,-0.56086 -7.55429,-0.11234 l -0.82833,0.25353 -0.10794,3.59612 c -0.0594,1.97785 -0.0193,3.98614 0.0892,4.46283 l 0.19715,0.86675 h 4.09985 4.09984 z m -44.56698,-14.87376 0.78962,-0.45162 -0.0112,-4.14936 c -0.006,-2.31033 -0.16026,-4.31428 -0.34805,-4.52149 -0.44791,-0.49425 -7.68863,-0.36924 -8.24731,0.1424 -0.46879,0.4293 -0.61865,7.46987 -0.17442,8.1941 0.76388,1.24535 6.24513,1.78446 7.99095,0.78597 z m 29.35544,0.0332 0.85366,-0.42918 -0.0925,-4.41502 -0.0926,-4.41506 h -11.59649 -11.59651 l -0.0926,4.41796 -0.0925,4.41794 0.75525,0.40154 c 1.08881,0.57886 20.80748,0.59849 21.95444,0.0218 z m 14.67627,-0.13995 0.73637,-0.56914 -0.005,-3.54388 c -0.003,-1.94914 -0.0921,-3.9041 -0.19906,-4.34436 l -0.19455,-0.80046 -3.65775,-0.11359 -3.65776,-0.11358 -0.63813,0.49474 -0.63812,0.49474 0.10482,4.06529 0.10481,4.06529 0.82833,0.46161 c 0.47114,0.26255 2.04661,0.46392 3.65372,0.46699 l 2.8254,0.006 0.73639,-0.56914 z m -50.62697,-15.3295 c 0.1986,-0.13542 0.33872,-1.95055 0.33872,-4.38772 v -4.15674 l -0.52068,-0.57451 -0.52065,-0.57452 h -3.21589 -3.21591 l -0.73637,0.56913 -0.73639,0.56913 v 3.81809 3.8181 l 0.57983,0.6398 0.57983,0.63981 3.5544,-0.0648 c 1.95491,-0.0357 3.70682,-0.16873 3.89311,-0.29577 z m 14.94256,-0.8099 c 0.16827,-0.48837 0.30595,-2.3861 0.30595,-4.21718 v -3.32924 l -0.54834,-0.66858 -0.54835,-0.66859 -3.34478,0.006 c -1.83961,0.003 -3.5684,0.16151 -3.84175,0.35204 l -0.497,0.34645 -0.11645,3.32315 c -0.064,1.82773 -0.0209,3.88484 0.0958,4.57136 l 0.21221,1.24822 3.54885,0.10363 c 4.18307,0.12215 4.33609,0.0876 4.73388,-1.06683 z m 21.41039,0.56247 0.43193,-0.39554 v -4.1468 -4.14679 l -0.64087,-0.37846 c -0.38089,-0.22493 -3.34674,-0.37847 -7.31101,-0.37847 -3.96429,0 -6.93014,0.15354 -7.31103,0.37847 l -0.64086,0.37846 0.005,4.10015 c 0.005,4.09171 0.12715,4.77471 0.90278,5.05075 0.94091,0.33486 14.15149,-0.084 14.56401,-0.46177 z m 14.80929,-0.15311 c 0.11057,-0.31807 0.2011,-2.23823 0.2011,-4.26704 v -3.68874 l -0.54834,-0.66858 -0.54833,-0.66859 h -3.40883 -3.40881 l -0.51577,0.81256 -0.51579,0.81254 v 3.41591 c 0,1.87875 0.15434,3.73413 0.34298,4.12307 l 0.343,0.70718 h 3.92884 3.92883 z m -14.82718,-15.29477 0.47097,-0.19942 -0.0934,-4.30282 -0.0934,-4.30282 -4.11546,-0.10309 -4.11547,-0.10322 -0.26956,0.46875 c -0.14826,0.25782 -0.27185,2.22918 -0.27463,4.38081 l -0.005,3.91207 0.47282,0.29236 c 0.51415,0.31791 7.25636,0.28209 8.02323,-0.0426 z m 14.61413,-0.037 0.41415,-0.15338 v -3.82039 c 0,-2.10123 -0.0905,-4.08063 -0.2011,-4.39871 l -0.20112,-0.5783 h -4.07071 -4.07072 l -0.2011,0.5783 c -0.6577,1.89119 -0.11797,8.45405 0.71009,8.63357 0.69394,0.15045 7.10212,-0.0691 7.62051,-0.26109 z m -43.63601,-0.085 c 0.13641,-2.25851 0.0348,-8.11285 -0.14651,-8.43649 -0.33631,-0.60044 -7.87328,-0.59207 -8.41833,0.01 -0.41662,0.45971 -0.57562,7.03282 -0.19649,8.12302 l 0.20112,0.5783 h 4.27181 c 2.34951,0 4.27929,-0.12339 4.2884,-0.27419 z m 14.56191,-4.29583 v -4.57002 h -4.30728 -4.30727 v 4.57002 4.57002 h 4.30727 4.30728 z"
       id="path584"
       sodipodi:nodetypes="ssssscsscsscssccccccsccsscsccccsssssccscccccccccsscssccccssscsscccsccssssccccccccccscccccscccccccsccccsscccccccccccsssssccccsccscsssccccssscssscsscccccccsscccsccccccsscsccscsscccssssccscsssccccccccc" /><path
       style="fill:none;stroke:#000000;stroke-width:14;stroke-linecap:round;stroke-linejoin:round;stroke-dasharray:none;stroke-opacity:1"
       d="M 122.53589,125.71292 96.666303,239.64857"
       id="path640"
       sodipodi:nodetypes="cc" /><path
       d="m 31.116271,210.35058 c -2.85008,-0.6652 -5.252398,-3.19127 -6.075191,-6.38813 l -0.494652,-1.92192 v -31.68249 -31.68243 l 0.54585,-1.8967 c 0.6015,-2.09014 3.056924,-5.36992 4.020195,-5.36992 0.316042,0 0.664651,-0.16453 0.774679,-0.36561 0.183161,-0.33475 75.255538,-0.57463 75.255538,-0.24046 0,0.19799 -3.76389,17.11869 -4.07911,18.33776 l -0.2836,1.09681 -0.16533,-3.65603 -0.16533,-3.65602 h -4.207803 -4.20783 l -0.092,4.1736 c -0.05065,2.29549 0.03988,4.32263 0.201156,4.50475 0.349073,0.3943 7.63819,0.44966 8.193177,0.0623 0.2511,-0.1753 0.32212,-0.0833 0.20402,0.26436 -0.0997,0.29329 -1.154534,4.968 -2.344188,10.38823 -1.189646,5.42025 -2.232874,10.13497 -2.318262,10.47715 l -0.155252,0.62211 -1.844308,0.10903 -1.844323,0.10902 -0.0909,4.47866 c -0.05004,2.46326 0.03144,4.47864 0.180898,4.47864 0.149481,0 0.523841,0.20819 0.831919,0.46265 l 0.56015,0.46262 -0.529639,2.37079 c -0.291306,1.30393 -0.629161,2.49091 -0.750787,2.63771 -0.121602,0.14682 -6.407164,0.2842 -13.967815,0.30528 -7.560652,0.0211 -14.074367,0.18357 -14.474919,0.36108 l -0.728276,0.32275 v 3.96029 c 0,2.59274 0.134116,4.11177 0.388415,4.39901 l 0.388417,0.43872 H 76.986788 90.13241 l -1.315124,6.02552 -1.315121,6.02553 -27.740218,0.0982 c -15.257119,0.054 -28.147669,0.003 -28.645673,-0.11303 z m 12.007114,-12.61464 c 0.108023,-0.31806 0.196471,-2.19831 0.196471,-4.17831 v -3.6 l -0.526349,-0.59453 -0.526362,-0.59454 -3.242691,0.0681 c -1.783483,0.0374 -3.512979,0.14788 -3.843323,0.24545 l -0.600631,0.17741 v 4.28364 c 0,2.35602 0.09713,4.39333 0.215788,4.52739 0.118666,0.13404 1.996628,0.24374 4.173213,0.24374 h 3.957425 z m 14.196347,-3.94928 c -0.01493,-2.97148 -0.145152,-4.43084 -0.411917,-4.61707 -0.494591,-0.34527 -6.475975,-0.47445 -7.211273,-0.15574 l -0.550449,0.23858 v 4.54183 4.54182 l 4.097756,-0.10225 4.097744,-0.10239 -0.02189,-4.34478 z m -0.60747,-10.78287 0.607041,-0.26938 0.01957,-4.54917 0.01958,-4.54919 -10.822574,-0.18279 c -5.952426,-0.1006 -11.077472,-0.0536 -11.389025,0.10432 l -0.566438,0.28707 v 4.31852 4.31852 l 0.728289,0.39673 c 0.83203,0.45325 20.406241,0.56796 21.403473,0.12547 z m 14.872533,-0.47571 0.542572,-0.61371 v -3.82018 c 0,-2.67593 -0.125235,-3.9376 -0.418095,-4.21213 -0.61497,-0.57648 -7.556627,-0.62828 -8.16187,-0.0609 l -0.483068,0.45283 v 4.0891 4.0891 l 0.890115,0.41389 c 0.493661,0.22953 2.270342,0.38309 3.988951,0.34477 l 3.098812,-0.0691 z m 13.834724,0.41802 0.626078,-0.37847 v -4.55719 -4.55718 h -4.010898 -4.010911 l -0.217293,0.97787 c -0.119522,0.53781 -0.180775,2.52437 -0.136159,4.41457 l 0.08111,3.43672 0.658607,0.52108 c 0.786568,0.62228 6.039162,0.72914 7.009456,0.1426 z m -35.221462,-15.48583 0.566438,-0.48569 v -4.19684 -4.19684 l -0.824431,-0.42429 c -0.543428,-0.27967 -3.108476,-0.42033 -7.525553,-0.41266 l -6.701122,0.0111 -0.566451,0.48567 -0.566438,0.48568 v 4.25552 c 0,2.34053 0.03646,4.28871 0.08087,4.32926 0.04453,0.0406 3.358177,0.17013 7.363716,0.28796 4.00554,0.11786 7.355629,0.24393 7.44464,0.28024 0.08906,0.0363 0.416736,-0.15254 0.728277,-0.41965 z m 14.560639,-0.34937 c 0.13079,-0.23172 0.240035,-2.2664 0.242763,-4.52149 l 0.0049,-4.10015 -0.626089,-0.37847 c -0.344338,-0.20815 -1.956123,-0.37846 -3.581757,-0.37846 -1.625621,0 -3.237406,0.17031 -3.581756,0.37846 l -0.626078,0.37847 v 4.35619 4.35621 l 0.461084,0.29236 c 0.705607,0.44742 7.426682,0.11331 7.706879,-0.38312 z m 14.326831,0.12796 0.486481,-0.45602 v -3.95615 -3.95613 l -0.719384,-0.56913 -0.719382,-0.56913 h -3.103743 -3.103741 l -0.708398,0.74545 -0.708397,0.74544 v 3.56043 c 0,2.43974 0.140919,3.78744 0.447688,4.28159 l 0.447675,0.72116 3.597367,-0.0457 c 2.343083,-0.0298 3.766973,-0.20474 4.083834,-0.50177 z m 11.194392,0.36471 h 3.210333 v -4.49692 c 0,-3.01012 -0.128416,-4.64196 -0.388415,-4.93562 -0.508281,-0.57413 -6.093569,-0.58532 -7.202848,-0.0145 l -0.824432,0.42429 v 4.11963 4.11964 l 0.527267,0.59554 c 0.289984,0.32756 0.738858,0.50382 0.997513,0.39171 0.25863,-0.11206 1.914896,-0.20381 3.680582,-0.20381 z M 43.04498,151.44039 c 0.344032,-0.61248 0.345415,-7.64056 0.0012,-8.25253 l -0.263328,-0.46875 -4.020464,0.10322 -4.020453,0.10309 -0.09065,4.44969 -0.09065,4.4497 0.544198,0.12035 c 1.498343,0.33132 7.69133,-0.0625 7.939794,-0.50474 z m 14.138665,0.44236 c 0.11891,4e-5 0.198992,-2.01535 0.177864,-4.47863 l -0.03842,-4.4787 -4.088483,-0.10226 -4.088496,-0.10225 v 4.56857 4.56859 l 3.479558,0.11413 c 1.913758,0.0627 3.673545,0.0683 3.910644,0.0124 0.237086,-0.056 0.528392,-0.1017 0.647351,-0.1017 z m 14.539121,-0.44457 c 0.548003,-0.50961 0.561986,-7.64035 0.01615,-8.25684 -0.259621,-0.29326 -1.697016,-0.43872 -4.335051,-0.43872 h -3.946623 l -0.196471,0.5783 c -0.108023,0.31807 -0.196471,2.29762 -0.196471,4.39901 v 3.8207 l 0.625172,0.26241 c 0.907584,0.38097 7.555955,0.079 8.033259,-0.36486 z m 14.322831,-4.12554 v -4.57002 h -4.011363 -4.011363 l -0.15237,0.457 c -0.215115,0.64523 -0.234371,7.54471 -0.02275,8.16751 l 0.17516,0.51553 h 4.011363 4.011363 z"
       style="fill:#000000;stroke-width:0.344003"
       id="path1325" /><path
       d="m 38.211316,238.98176 c -16.079119,-4.8905 -17.451017,-31.08863 -3.793508,-72.44195 1.363994,-4.13002 3.141348,-9.10749 4.05352,-11.35183 0.346442,-0.85241 0.629894,-1.64878 0.629894,-1.76973 0,-1.86511 5.281122,-12.16519 6.677572,-13.02366 1.482536,-0.91141 1.607428,-1.10319 2.018244,-3.09905 0.663414,-3.22311 1.193568,-3.81143 5.293147,-5.87396 13.159101,-6.62044 19.731855,-7.47943 25.731014,-3.36277 2.100883,1.44165 2.100883,1.44165 14.205755,1.44165 13.628486,0 12.659126,-0.24219 11.650926,2.91087 -0.38897,1.21652 -0.46182,1.2617 -1.87551,1.16351 -7.436045,-0.51652 -9.607595,12.38047 -2.42551,14.40516 0.5235,0.14757 0.84523,0.44531 0.75816,0.70162 -0.0832,0.2449 -1.949004,8.57403 -4.146207,18.50919 -2.509065,11.34531 -4.032666,17.62203 -4.096367,16.87576 -0.101416,-1.18822 -0.101416,-1.18822 -3.641391,-1.18822 -3.539945,0 -3.539945,0 -3.539945,-3.65601 0,-3.65602 0,-3.65602 -3.236796,-3.65602 -3.236794,0 -3.236794,0 -3.236794,3.65602 0,3.65601 0,3.65601 -3.236795,3.65601 -3.236807,0 -3.236807,0 -3.236807,3.65603 0,3.65602 0,3.65602 3.236807,3.65602 3.236795,0 3.236795,0 3.236795,4.02162 0,6.2892 6.396592,6.37853 6.543554,0.0913 0.09187,-3.93022 0.09187,-3.93022 3.095136,-4.03547 3.003285,-0.10529 3.003285,-0.10529 2.790384,0.91401 -0.117075,0.56058 -0.864742,3.89837 -1.661441,7.41729 -0.796695,3.51892 -1.700504,7.54968 -2.008447,8.95725 -0.559915,2.55921 -0.559915,2.55921 -8.948293,2.74201 -6.387795,0.1392 -8.581396,0.30597 -9.197613,0.69925 -3.394106,2.16617 -12.207476,10.7659 -23.918891,23.33909 -2.718238,2.91826 -5.109791,5.19924 -5.437124,5.18577 -0.3214,-0.0138 -1.34896,-0.25662 -2.283469,-0.54085 z M 66.128491,168.2944 c 8.634246,-4.50148 5.690249,-19.18033 -3.815381,-19.02362 -9.011162,0.14854 -11.84311,14.08538 -3.821315,18.80577 1.930788,1.13615 5.670677,1.24283 7.636696,0.21785 z m 27.002388,-6.47067 c 2.001798,-1.90257 0.938225,-5.26874 -1.664695,-5.26874 -3.717987,0 -3.751874,6.05974 -0.03462,6.1905 0.386899,0.0138 1.151595,-0.40118 1.699317,-0.92176 z"
       style="fill:#000000;stroke-width:0.344003"
       id="path1348" /></g></svg>
