<?xml version="1.0" encoding="UTF-8" standalone="no"?>
<!-- Created with Inkscape (http://www.inkscape.org/) -->

<svg
   width="20.637501mm"
   height="20.637501mm"
   viewBox="0 0 20.637501 20.637501"
   version="1.1"
   id="svg5"
   xml:space="preserve"
   inkscape:version="1.2.2 (732a01da63, 2022-12-09)"
   sodipodi:docname="delete.svg"
   xmlns:inkscape="http://www.inkscape.org/namespaces/inkscape"
   xmlns:sodipodi="http://sodipodi.sourceforge.net/DTD/sodipodi-0.dtd"
   xmlns="http://www.w3.org/2000/svg"
   xmlns:svg="http://www.w3.org/2000/svg"><sodipodi:namedview
     id="namedview7"
     pagecolor="#ffffff"
     bordercolor="#999999"
     borderopacity="1"
     inkscape:showpageshadow="0"
     inkscape:pageopacity="0"
     inkscape:pagecheckerboard="0"
     inkscape:deskcolor="#d1d1d1"
     inkscape:document-units="mm"
     showgrid="false"
     inkscape:zoom="2.9898656"
     inkscape:cx="45.319763"
     inkscape:cy="39.132194"
     inkscape:window-width="1920"
     inkscape:window-height="1009"
     inkscape:window-x="-8"
     inkscape:window-y="-8"
     inkscape:window-maximized="1"
     inkscape:current-layer="layer1" /><defs
     id="defs2" /><g
     inkscape:label="Calque 1"
     inkscape:groupmode="layer"
     id="layer1"
     transform="translate(-62.37002,-66.746396)"><path
       style="fill:#ffffff;stroke-width:0.264583"
       d="m 63.067558,86.686356 c -0.526805,-0.5268 -0.697538,-0.96304 -0.697538,-1.78226 0,-1.03634 0.150285,-1.23534 3.36962,-4.46183 l 3.36962,-3.37712 -3.36962,-3.37712 c -3.219335,-3.22649 -3.36962,-3.42549 -3.36962,-4.46183 0,-1.50664 0.973162,-2.4798 2.479797,-2.4798 1.036342,0 1.235339,0.15028 4.461837,3.36962 l 3.377116,3.36962 3.377116,-3.36962 c 3.226498,-3.21934 3.425495,-3.36962 4.461837,-3.36962 1.506635,0 2.479797,0.97316 2.479797,2.4798 0,1.03634 -0.150284,1.23534 -3.36962,4.46183 l -3.36962,3.37712 3.36962,3.37712 c 3.219336,3.22649 3.36962,3.42549 3.36962,4.46183 0,1.50664 -0.973162,2.4798 -2.479797,2.4798 -1.036342,0 -1.235339,-0.15028 -4.461837,-3.36962 l -3.377116,-3.36962 -3.377116,3.36962 c -3.226498,3.21934 -3.425495,3.36962 -4.461837,3.36962 -0.81922,0 -1.255454,-0.17073 -1.782259,-0.69754 z"
       id="path248" /></g></svg>
