<?xml version="1.0" encoding="UTF-8" standalone="no"?>
<!-- Created with Inkscape (http://www.inkscape.org/) -->

<svg
   version="1.1"
   id="svg400"
   width="510.64191"
   height="511.45776"
   viewBox="0 0 510.64191 511.45776"
   sodipodi:docname="disconnect.svg"
   inkscape:version="1.2.2 (732a01da63, 2022-12-09)"
   xmlns:inkscape="http://www.inkscape.org/namespaces/inkscape"
   xmlns:sodipodi="http://sodipodi.sourceforge.net/DTD/sodipodi-0.dtd"
   xmlns="http://www.w3.org/2000/svg"
   xmlns:svg="http://www.w3.org/2000/svg">
  <defs
     id="defs404" />
  <sodipodi:namedview
     id="namedview402"
     pagecolor="#ffffff"
     bordercolor="#999999"
     borderopacity="1"
     inkscape:showpageshadow="0"
     inkscape:pageopacity="0"
     inkscape:pagecheckerboard="0"
     inkscape:deskcolor="#d1d1d1"
     showgrid="false"
     inkscape:zoom="1.0006243"
     inkscape:cx="254.34121"
     inkscape:cy="324.79722"
     inkscape:window-width="1920"
     inkscape:window-height="1009"
     inkscape:window-x="-8"
     inkscape:window-y="-8"
     inkscape:window-maximized="1"
     inkscape:current-layer="g406" />
  <g
     inkscape:groupmode="layer"
     inkscape:label="Image"
     id="g406"
     transform="translate(2.4090137,5.19651)">
    <path
       style="fill:#ffffff"
       d="m 14.411942,505.78655 c -1.1,-0.23261 -3.00425,-0.63691 -4.23166,-0.89844 -2.6242296,-0.55917 -8.8546797,-5.81009 -10.48163966,-8.83376 -2.02508004,-3.76358 -2.68727004,-9.95437 -1.56303004,-14.61286 0.95714004,-3.96611 3.32997,-6.76884 19.9997597,-23.62334 l 18.91378,-19.12334 -3.74063,-5.84753 c -16.61716,-25.9768 -20.94237,-63.56027 -10.7394,-93.31887 7.02901,-20.5012 14.16081,-30.79361 38.550751,-55.6353 L 80.827804,263.82014 70.843,253.88082 C 59.494164,242.58367 56.519061,237.5797 56.779321,230.22641 c 0.563005,-15.9069 17.243331,-24.09232 30.384246,-14.91026 2.336606,1.63267 48.837963,47.66629 103.336353,102.29692 86.10282,86.31177 99.24024,99.86781 100.25,103.44444 3.57659,12.66857 -2.68515,23.11436 -15.25547,25.44908 -7.79605,1.44798 -12.54931,-1.03842 -24.90481,-13.02757 l -11.17142,-10.84018 -20.01543,19.65133 c -24.77987,24.3291 -35.08904,31.46941 -55.57776,38.49413 -29.7586,10.20298 -67.342073,5.87777 -93.318873,-10.73939 l -5.847537,-3.74063 -19.123338,18.88095 c -15.45954,15.26359 -19.91192,19.10849 -23.23936,20.06861 -4.24642,1.22528 -4.52115,1.24384 -7.88398,0.53271 z M 285.62817,307.72333 c -7.33964,-2.4468 -12.70507,-9.95617 -12.70507,-17.78184 0,-7.56057 1.15689,-8.97061 36.31798,-44.26521 l 34.13559,-34.26522 -25.73082,-25.73081 -25.73081,-25.73082 -33.75155,33.71036 c -34.50546,34.46337 -37.31641,36.7817 -44.5973,36.7817 -3.85118,0 -10.23029,-2.37775 -13.01065,-4.84959 -5.58942,-4.96919 -7.67824,-16.4188 -4.22346,-23.15041 0.98794,-1.925 16.69156,-18.45298 34.89693,-36.72885 L 264.32969,132.4838 240.31433,108.21264 C 220.57328,88.261329 216.08654,83.208909 215.10546,79.825472 c -3.65181,-12.59389 2.64018,-23.11186 15.22399,-25.44908 7.79605,-1.44798 12.54931,1.03843 24.90481,13.02757 l 11.17142,10.84018 20.01543,-19.65132 c 24.77987,-24.32911 35.08904,-31.46942 55.57776,-38.49414 29.7586,-10.2029696 67.34207,-5.87776 93.31887,10.7394 l 5.84753,3.74062 19.12334,-18.88095 c 15.65587,-15.45742957 19.88701,-19.1014996 23.33504,-20.0972696 2.31643,-0.66897 5.35393,-0.97842 6.75,-0.68765 1.39606,0.29076 3.65505,0.76017 5.01996,1.04311 2.82598,0.58583 9.0348,5.71915 10.73164,8.8727 2.02508,3.76358 2.68726,9.9543696 1.56303,14.6128496 -0.95714,3.96611 -3.32997,6.76885 -19.99976,23.62334 l -18.91378,19.12334 3.74063,5.84754 c 16.61716,25.976797 20.94237,63.560258 10.73939,93.318858 -7.029,20.5012 -14.1608,30.79361 -38.55074,55.6353 l -19.70793,20.07297 9.9848,9.93932 c 5.5368,5.51158 10.93234,11.89212 12.11181,14.32291 3.83691,7.90759 1.66495,18.94623 -4.71533,23.96496 -6.12827,4.8205 -16.5042,5.29967 -22.75076,1.05065 -1.76806,-1.20267 -13.44373,-12.34739 -25.94593,-24.76606 l -22.73127,-22.57939 -34.26873,34.0413 c -39.4301,39.16841 -38.8307,38.76115 -51.05251,34.6868 z"
       id="path527" />
  </g>
</svg>
