<?xml version="1.0" encoding="UTF-8" standalone="no"?>
<!-- Created with Inkscape (http://www.inkscape.org/) -->

<svg
   width="87.810791mm"
   height="87.810791mm"
   viewBox="0 0 87.81079 87.810789"
   version="1.1"
   id="svg5"
   xml:space="preserve"
   inkscape:version="1.2.2 (732a01da63, 2022-12-09)"
   sodipodi:docname="icon.svg"
   inkscape:export-filename="logo.png"
   inkscape:export-xdpi="28.925831"
   inkscape:export-ydpi="28.925831"
   xmlns:inkscape="http://www.inkscape.org/namespaces/inkscape"
   xmlns:sodipodi="http://sodipodi.sourceforge.net/DTD/sodipodi-0.dtd"
   xmlns="http://www.w3.org/2000/svg"
   xmlns:svg="http://www.w3.org/2000/svg"><sodipodi:namedview
     id="namedview7"
     pagecolor="#ffffff"
     bordercolor="#999999"
     borderopacity="1"
     inkscape:showpageshadow="0"
     inkscape:pageopacity="0"
     inkscape:pagecheckerboard="0"
     inkscape:deskcolor="#d1d1d1"
     inkscape:document-units="mm"
     showgrid="false"
     inkscape:zoom="0.42000539"
     inkscape:cx="-610.70644"
     inkscape:cy="-103.5701"
     inkscape:window-width="1419"
     inkscape:window-height="1032"
     inkscape:window-x="500"
     inkscape:window-y="73"
     inkscape:window-maximized="0"
     inkscape:current-layer="layer1" /><defs
     id="defs2" /><g
     inkscape:label="Calque 1"
     inkscape:groupmode="layer"
     id="layer1"
     transform="translate(-61.411774,-85.980347)"><circle
       style="fill:#999999;stroke:none;stroke-width:0.504;stroke-linejoin:round"
       id="path348"
       cx="105.31717"
       cy="129.88574"
       r="43.905396" /><path
       style="fill:#3c4dac;fill-opacity:1;stroke-width:0.224052"
       d="m 93.566735,158.97618 c -0.62613,-0.30267 -21.140681,-21.75047 -21.554601,-22.53517 -0.744464,-1.41133 -0.232525,-2.97409 1.320515,-4.03102 l 0.74465,-0.50678 8.420867,0.0587 8.420876,0.0587 0.112025,5.53775 c 0.09964,4.92553 0.156244,5.58192 0.512006,5.93737 0.373129,0.37282 1.275541,0.40392 13.443097,0.46338 7.17372,0.0351 13.27254,0.008 13.55293,-0.0618 0.28041,-0.0691 0.70891,-0.32453 0.95222,-0.56786 0.41643,-0.41643 0.44241,-0.7647 0.44241,-5.93168 v -5.48927 h 8.18508 c 8.82312,0 9.08946,0.0313 10.16333,1.19612 0.66188,0.71789 0.89613,2.48934 0.44111,3.3359 -0.47856,0.8904 -20.74218,21.97138 -21.54137,22.41028 -0.65421,0.35926 -1.65164,0.39081 -11.92003,0.37691 -7.371612,-0.01 -11.37342,-0.0961 -11.695115,-0.25156 z m 4.610071,-21.12958 c -0.321228,-0.1746 -0.774932,-0.59906 -1.008237,-0.94325 -0.39208,-0.57844 -0.424191,-1.11763 -0.424191,-7.12331 0,-6.01196 0.03176,-6.5444 0.42536,-7.1251 0.837376,-1.23548 1.10302,-1.27685 8.200632,-1.27685 7.16234,0 7.51232,0.0572 8.1741,1.33698 0.28055,0.54253 0.33987,1.77565 0.33987,7.06497 0,7.04006 -0.06,7.4017 -1.33698,8.06207 -0.93611,0.48408 -13.480989,0.48799 -14.370554,0.004 z M 73.332649,127.37414 c -1.55276,-1.05675 -2.065428,-2.62109 -1.320515,-4.0294 0.575789,-1.08858 21.060251,-22.32025 21.775196,-22.56948 0.431321,-0.15036 4.592795,-0.23404 11.63863,-0.23404 9.32077,0 11.07324,0.0508 11.67327,0.33838 0.75193,0.36038 21.10809,21.50898 21.62402,22.4658 0.45518,0.84415 0.22071,2.61627 -0.44111,3.33411 -1.07387,1.16475 -1.34021,1.19609 -10.16333,1.19609 h -8.18508 v -5.46444 c 0,-5.04646 -0.0327,-5.50495 -0.4283,-5.99342 l -0.42831,-0.52895 H 105.5102 c -12.719506,0 -13.591915,0.025 -13.967017,0.39964 -0.355905,0.3555 -0.412464,1.01119 -0.512116,5.9374 l -0.112025,5.53774 -8.420876,0.0587 -8.420867,0.0587 z"
       id="path304"
       sodipodi:nodetypes="ssscccssscsscssssssscsscssssccsssssssscsscssscccs" /></g></svg>
