<?xml version="1.0" encoding="UTF-8" standalone="no"?>
<!-- Created with Inkscape (http://www.inkscape.org/) -->

<svg
   width="135.4278mm"
   height="92.774475mm"
   viewBox="0 0 135.4278 92.774475"
   version="1.1"
   id="svg19606"
   xml:space="preserve"
   inkscape:version="1.2.2 (732a01da63, 2022-12-09)"
   sodipodi:docname="modeAuto.svg"
   xmlns:inkscape="http://www.inkscape.org/namespaces/inkscape"
   xmlns:sodipodi="http://sodipodi.sourceforge.net/DTD/sodipodi-0.dtd"
   xmlns="http://www.w3.org/2000/svg"
   xmlns:svg="http://www.w3.org/2000/svg"><sodipodi:namedview
     id="namedview19608"
     pagecolor="#ffffff"
     bordercolor="#999999"
     borderopacity="1"
     inkscape:showpageshadow="0"
     inkscape:pageopacity="0"
     inkscape:pagecheckerboard="0"
     inkscape:deskcolor="#d1d1d1"
     inkscape:document-units="mm"
     showgrid="false"
     inkscape:zoom="0.70579714"
     inkscape:cx="40.379875"
     inkscape:cy="-2.8336754"
     inkscape:window-width="1920"
     inkscape:window-height="1009"
     inkscape:window-x="-8"
     inkscape:window-y="-8"
     inkscape:window-maximized="1"
     inkscape:current-layer="layer1" /><defs
     id="defs19603" /><g
     inkscape:label="Calque 1"
     inkscape:groupmode="layer"
     id="layer1"
     transform="translate(-39.66838,-148.59363)"><path
       id="path24458"
       style="fill:#ffffff;stroke-width:0.264583"
       d="m 107.40171,181.57703 c -33.348017,0 -34.647249,0.0185 -36.147145,0.50643 -0.855701,0.27837 -1.936611,0.70064 -2.40192,0.93844 -1.212534,0.61968 -3.068121,2.58711 -3.95118,4.18941 l -0.759127,1.37718 -0.07183,22.58312 c -0.06302,19.78537 -0.02205,22.68315 0.330729,23.3903 0.221461,0.44393 0.402559,0.90164 0.402559,1.01751 0,0.50188 1.710157,2.68013 2.726966,3.47317 1.49732,1.1678 2.180046,1.53236 3.604948,1.9234 1.626918,0.44649 70.03308,0.55017 71.93359,0.10904 2.54543,-0.59083 4.37471,-1.78623 5.9061,-3.8592 0.56337,-0.76261 1.02423,-1.49223 1.02423,-1.62161 0,-0.12938 0.18031,-0.59733 0.40101,-1.03973 0.35093,-0.70338 0.39243,-3.62351 0.33073,-23.25749 l -0.0703,-22.45393 -0.7705,-1.52084 c -0.85646,-1.69099 -2.64638,-3.64931 -3.93981,-4.31033 -0.46531,-0.2378 -1.54622,-0.66007 -2.40192,-0.93844 -1.49989,-0.48793 -2.79912,-0.50643 -36.14715,-0.50643 z m -22.678716,9.78287 c 2.047415,-0.0217 4.088508,0.7748 5.757788,2.39313 2.014588,1.9531 2.677782,3.45031 2.689242,6.0725 -0.159545,4.9476 -4.369754,10.05188 -10.789006,8.25893 -2.296401,-0.76312 -4.088898,-2.25582 -5.18573,-4.31912 -0.522753,-0.98338 -0.613566,-1.54407 -0.615466,-3.79977 -0.0028,-3.1939 0.369904,-4.16087 2.347143,-6.09058 1.694642,-1.65392 3.748614,-2.49344 5.796029,-2.51509 z m 45.465446,0.0372 c 2.84179,0.0582 5.43613,1.56191 7.1546,4.27158 0.84454,1.33171 0.87908,1.49112 0.88108,4.03231 0.001,2.1808 -0.1009,2.86144 -0.58084,3.87211 -1.02534,2.15915 -2.82605,3.65364 -5.48391,4.55115 -1.68213,0.56803 -2.85283,0.54378 -4.63072,-0.0956 -3.86723,-1.39077 -5.87785,-4.17454 -5.89525,-8.16385 -0.0114,-2.62376 0.65653,-4.14161 2.68924,-6.11229 1.10173,-1.06808 1.89736,-1.58414 2.96468,-1.92288 0.97908,-0.31073 1.95385,-0.45191 2.90112,-0.43253 z m -78.599858,2.1239 c -1.996754,0.0128 -3.003878,0.12483 -4.114994,0.4005 -3.311377,0.82151 -5.730749,2.86402 -7.119462,6.011 l -0.685746,1.55443 v 9.94616 c 0,8.69523 0.05653,10.09696 0.448034,11.14557 1.278304,3.42383 3.648988,5.64378 6.960299,6.51692 0.751361,0.19809 3.094099,0.30017 6.35,0.27647 l 5.159375,-0.0377 V 211.47498 193.6156 l -4.630208,-0.077 c -0.92593,-0.0154 -1.701713,-0.0218 -2.367298,-0.0176 z m 111.625748,0 c -0.66559,-0.004 -1.44085,0.002 -2.36678,0.0176 l -4.63021,0.077 -0.0687,17.59479 c -0.0376,9.67712 -0.0116,17.74362 0.0579,17.92552 0.16338,0.42755 9.39459,0.46299 11.20448,0.0429 3.44125,-0.79876 5.96651,-3.09316 7.28224,-6.61614 0.40551,-1.08582 0.44536,-2.30096 0.37466,-11.37708 -0.0883,-11.32553 -0.0576,-11.11776 -1.97559,-13.59659 -1.36541,-1.76469 -3.45629,-3.09534 -5.76244,-3.66747 -1.11112,-0.27567 -2.11876,-0.3877 -4.11551,-0.4005 z m -73.287003,25.34161 c 11.480493,4.0678 22.960833,5.36801 34.441313,0 -8.58537,17.5005 -28.449806,14.56612 -34.441313,0 z" /><path
       d="m 103.73121,177.02069 c -0.21143,-0.21144 -0.28363,-0.87365 -0.28363,-8.13861 v -5.01851 l -1.10314,-0.90218 c -3.83094,-3.13305 -4.223609,-8.60658 -0.86009,-11.98912 0.5452,-0.54828 1.3429,-1.16519 1.77269,-1.3709 0.42979,-0.2057 1.09004,-0.51816 1.46721,-0.69434 0.89455,-0.41787 4.11563,-0.41787 5.01017,0 0.37719,0.17618 1.03741,0.48863 1.46719,0.69434 0.91323,0.43709 2.50245,2.0145 3.03706,3.01448 0.52227,0.97689 1.02078,2.89703 1.02411,3.94461 0.007,2.2817 -1.27479,4.86376 -3.19702,6.43888 l -1.05466,0.86423 v 5.01863 c 0,7.26496 -0.0722,7.92718 -0.28363,8.13861 -0.1928,0.1928 -1.31312,0.28363 -3.49813,0.28363 -2.18502,0 -3.30534,-0.0908 -3.49813,-0.28363 z"
       style="fill:#ffffff;stroke-width:0.23636"
       id="path24468"
       sodipodi:nodetypes="cscssssssscscssscc" /></g></svg>
