<?xml version="1.0" encoding="UTF-8" standalone="no"?>
<!-- Created with Inkscape (http://www.inkscape.org/) -->

<svg
   width="144.87848mm"
   height="129.90161mm"
   viewBox="0 0 144.87848 129.90161"
   version="1.1"
   id="svg19606"
   xml:space="preserve"
   sodipodi:docname="modeTele.svg"
   inkscape:version="1.2.2 (732a01da63, 2022-12-09)"
   xmlns:inkscape="http://www.inkscape.org/namespaces/inkscape"
   xmlns:sodipodi="http://sodipodi.sourceforge.net/DTD/sodipodi-0.dtd"
   xmlns="http://www.w3.org/2000/svg"
   xmlns:svg="http://www.w3.org/2000/svg"><sodipodi:namedview
     id="namedview19608"
     pagecolor="#ffffff"
     bordercolor="#999999"
     borderopacity="1"
     inkscape:showpageshadow="0"
     inkscape:pageopacity="0"
     inkscape:pagecheckerboard="0"
     inkscape:deskcolor="#d1d1d1"
     inkscape:document-units="mm"
     showgrid="false"
     inkscape:zoom="0.56050005"
     inkscape:cx="-316.68151"
     inkscape:cy="144.51381"
     inkscape:window-width="1920"
     inkscape:window-height="1009"
     inkscape:window-x="-8"
     inkscape:window-y="-8"
     inkscape:window-maximized="1"
     inkscape:current-layer="layer1" /><defs
     id="defs19603" /><g
     inkscape:label="Calque 1"
     inkscape:groupmode="layer"
     id="layer1"
     transform="translate(-34.943037,-110.64729)"><path
       style="fill:#ffffff;stroke-width:1.71436"
       d="m 47.614555,237.7437 c -7.409379,-3.3183 -12.667479,-11.65039 -12.671516,-20.07962 -0.004,-8.30088 7.853284,-35.06909 13.353042,-45.49137 5.085052,-9.63654 14.085089,-18.79914 20.670263,-21.04369 6.644915,-2.26494 13.961637,-1.71303 23.913851,1.80376 11.452055,4.04678 20.530165,4.04678 29.875245,0 21.79394,-9.43769 39.20589,1.79945 50.564,32.63249 5.04419,13.693 7.87773,33.54239 5.8316,40.85103 -1.55761,5.56374 -9.29917,11.97563 -15.88461,13.15638 -7.69317,1.37939 -19.25399,-3.46562 -30.2283,-12.6684 l -8.84757,-7.41932 H 107.69957 91.208514 l -8.669917,7.56123 c -8.322687,7.25834 -20.152979,13.43282 -25.8709,13.50251 -1.493756,0.0184 -5.567642,-1.244 -9.053142,-2.805 z m 69.709025,-32.86777 c 0,-1.83873 -2.21026,-2.43481 -9.02831,-2.43481 -7.26395,0 -9.151336,0.57241 -9.657807,2.93022 -0.553625,2.57627 0.537191,2.87032 9.028367,2.4348 7.13201,-0.36564 9.65775,-1.13209 9.65775,-2.93021 z M 80.205784,192.70179 c 0,-3.42686 0.845011,-4.05809 5.431871,-4.05809 4.162644,0 5.431871,-0.73344 5.431871,-3.13862 0,-2.21731 -1.461592,-3.2894 -4.979187,-3.65229 -3.910879,-0.40369 -5.102161,-1.47137 -5.552176,-4.97747 -0.40444,-3.15354 -1.60058,-4.46384 -4.073886,-4.46384 -2.682849,0 -3.500965,1.13785 -3.500965,4.86967 0,4.11212 -0.704108,4.86967 -4.526572,4.86967 -3.31948,0 -4.52657,0.86571 -4.52657,3.24641 0,2.38076 1.20709,3.24647 4.52657,3.24647 3.621271,0 4.526572,0.8116 4.526572,4.05809 0,2.9759 0.965659,4.05806 3.62127,4.05806 2.655543,0 3.621202,-1.08216 3.621202,-4.05806 z m 60.507856,3.07277 c 3.78606,-1.30252 3.67081,-6.50594 -0.17314,-7.82847 -1.6985,-0.58405 -4.22382,0.0184 -5.72901,1.3681 -2.21149,1.98261 -2.27607,2.86187 -0.362,4.92932 2.6684,2.88242 2.47426,2.83498 6.26455,1.53105 z m -6.18916,-11.18893 c 0,-2.93475 -0.97277,-4.05807 -3.51436,-4.05807 -1.9329,0 -4.04207,0.76547 -4.68698,1.701 -1.9396,2.81346 0.60015,6.41514 4.52328,6.41514 2.71623,0 3.67806,-1.06122 3.67806,-4.05807 z m 16.78334,2.02904 c 1.2842,-3.30059 -0.63642,-6.08711 -4.19583,-6.08711 -3.99177,0 -6.03859,2.53119 -4.65694,5.75901 1.23501,2.8853 7.76366,3.12727 8.85277,0.32822 z m -9.55996,-6.87804 c 4.48298,-4.84263 -1.80936,-9.90628 -6.77651,-5.45329 -1.43654,1.28791 -1.52967,2.80714 -0.29836,4.86967 2.16577,3.628 4.10823,3.78819 7.07487,0.58344 z"
       id="path27112" /><path
       style="fill:#ffffff;stroke-width:0.17738"
       d="m 89.89291,144.57272 c -0.863164,-0.27804 -2.221938,-1.39538 -2.762445,-2.27159 -0.994914,-1.61286 -0.998018,-3.8121 -0.0076,-5.39747 0.5429,-0.86904 1.802083,-2.07792 3.590961,-3.44751 9.824744,-7.52196 23.522754,-7.52196 33.347484,0 2.85005,2.18203 3.88929,3.44008 4.2409,5.13375 0.6519,3.14016 -1.61802,6.00223 -4.89351,6.17003 -1.6073,0.0823 -2.66273,-0.36155 -4.31403,-1.81441 -2.28463,-2.01005 -4.73533,-3.36155 -7.50088,-4.13654 -1.57465,-0.44127 -6.83779,-0.44127 -8.41244,0 -2.76441,0.77467 -5.214037,2.1253 -7.500626,4.13554 -1.566883,1.37753 -2.611065,1.84417 -4.080002,1.8233 -0.63413,-0.009 -1.402644,-0.0968 -1.707803,-0.1951 z M 78.323236,132.53701 c -2.320353,-0.46192 -3.951583,-2.42941 -4.079142,-4.92003 -0.0596,-1.16375 -0.01031,-1.4089 0.485681,-2.41645 1.258807,-2.557 7.378113,-7.32303 12.859628,-10.01574 4.308613,-2.11654 8.898311,-3.53265 13.678547,-4.22039 2.93872,-0.42281 9.30052,-0.42281 12.23923,0 4.78022,0.68774 9.36992,2.10385 13.67854,4.22039 5.48151,2.69271 11.60082,7.45874 12.85962,10.01574 0.49723,1.01001 0.54516,1.24986 0.48281,2.41645 -0.15671,2.93285 -2.26614,4.98362 -5.12615,4.98362 -1.6211,0 -2.70428,-0.5406 -4.77763,-2.38441 -3.92497,-3.49045 -7.37217,-5.56865 -11.88447,-7.16473 -7.19332,-2.54437 -15.51136,-2.54437 -22.704671,0 -4.512303,1.59608 -7.959515,3.67428 -11.884477,7.16473 -2.34817,2.08822 -3.89716,2.7051 -5.827516,2.32082 z"
       id="path27126"
       sodipodi:nodetypes="ccccsssssscccccsccssssssssssc" /></g></svg>
