<?xml version="1.0" encoding="UTF-8" standalone="no"?>
<!-- Created with Inkscape (http://www.inkscape.org/) -->

<svg
   width="94.690002mm"
   height="84.184616mm"
   viewBox="0 0 94.690003 84.184616"
   version="1.1"
   id="svg5"
   xml:space="preserve"
   inkscape:version="1.2.2 (732a01da63, 2022-12-09)"
   sodipodi:docname="warnings.svg"
   xmlns:inkscape="http://www.inkscape.org/namespaces/inkscape"
   xmlns:sodipodi="http://sodipodi.sourceforge.net/DTD/sodipodi-0.dtd"
   xmlns="http://www.w3.org/2000/svg"
   xmlns:svg="http://www.w3.org/2000/svg"><sodipodi:namedview
     id="namedview7"
     pagecolor="#ffffff"
     bordercolor="#999999"
     borderopacity="1"
     inkscape:showpageshadow="0"
     inkscape:pageopacity="0"
     inkscape:pagecheckerboard="0"
     inkscape:deskcolor="#d1d1d1"
     inkscape:document-units="mm"
     showgrid="false"
     inkscape:zoom="0.73851712"
     inkscape:cx="117.1266"
     inkscape:cy="166.54997"
     inkscape:window-width="1920"
     inkscape:window-height="1009"
     inkscape:window-x="-8"
     inkscape:window-y="-8"
     inkscape:window-maximized="1"
     inkscape:current-layer="layer1" /><defs
     id="defs2" /><g
     inkscape:label="Calque 1"
     inkscape:groupmode="layer"
     id="layer1"
     transform="translate(-53.915116,-104.46207)"><path
       style="fill:#ffffff;stroke-width:0.264583"
       d="m 59.291794,188.20964 c -3.314362,-1.14952 -5.376678,-4.05763 -5.376678,-7.58175 0,-0.7276 0.117818,-1.73963 0.261817,-2.24896 0.44269,-1.56578 40.282128,-70.38679 41.434174,-71.57585 1.590789,-1.64189 3.281543,-2.34101 5.661473,-2.34101 2.37933,0 4.06902,0.69845 5.66335,2.34101 0.64474,0.66425 5.07304,8.07677 11.7794,19.71752 5.91044,10.25922 14.88896,25.82811 19.95226,34.59753 5.0633,8.76942 9.39203,16.49037 9.6194,17.15767 0.28132,0.82562 0.37304,1.77563 0.28706,2.97331 -0.21246,2.95961 -1.76804,5.29005 -4.39092,6.57807 l -1.50326,0.73821 -41.01041,0.0592 c -38.828971,0.0561 -41.083147,0.034 -42.377666,-0.41498 z m 44.357256,-10.8866 c 1.27177,-0.64881 2.24148,-1.89145 2.63748,-3.3798 1.00372,-3.77249 -2.79686,-7.35811 -6.504454,-6.13656 -3.533672,1.16425 -4.803492,5.17613 -2.571946,8.12582 1.400709,1.85149 4.30568,2.47884 6.43892,1.39054 z m -0.67208,-16.95949 c 1.42633,-0.35916 2.90378,-1.83034 3.29755,-3.28357 0.39666,-1.46386 0.39191,-22.90464 -0.005,-24.3357 -0.54291,-1.95556 -2.80622,-3.57489 -4.99656,-3.57489 -2.2311,0 -4.468716,1.6276 -5.012149,3.64575 -0.208587,0.77463 -0.277061,4.65632 -0.223864,12.69041 l 0.07665,11.57443 0.620252,1.08216 c 1.174406,2.04902 3.538441,2.88255 6.243511,2.20141 z"
       id="path372" /></g></svg>
