<?xml version="1.0" encoding="UTF-8" standalone="no"?>
<!-- Created with Inkscape (http://www.inkscape.org/) -->

<svg
   width="189.37592mm"
   height="93.36908mm"
   viewBox="0 0 189.37592 93.369082"
   version="1.1"
   id="svg5"
   xml:space="preserve"
   inkscape:version="1.2.2 (732a01da63, 2022-12-09)"
   sodipodi:docname="xbox.svg"
   xmlns:inkscape="http://www.inkscape.org/namespaces/inkscape"
   xmlns:sodipodi="http://sodipodi.sourceforge.net/DTD/sodipodi-0.dtd"
   xmlns="http://www.w3.org/2000/svg"
   xmlns:svg="http://www.w3.org/2000/svg"><sodipodi:namedview
     id="namedview7"
     pagecolor="#ffffff"
     bordercolor="#999999"
     borderopacity="1"
     inkscape:showpageshadow="0"
     inkscape:pageopacity="0"
     inkscape:pagecheckerboard="0"
     inkscape:deskcolor="#d1d1d1"
     inkscape:document-units="mm"
     showgrid="false"
     inkscape:zoom="1.4393452"
     inkscape:cx="410.95076"
     inkscape:cy="208.42811"
     inkscape:window-width="1920"
     inkscape:window-height="1009"
     inkscape:window-x="-8"
     inkscape:window-y="-8"
     inkscape:window-maximized="1"
     inkscape:current-layer="layer1" /><defs
     id="defs2" /><g
     inkscape:label="Calque 1"
     inkscape:groupmode="layer"
     id="layer1"
     transform="translate(-10.781838,-88.565499)"><path
       style="fill:#ffffff;stroke-width:0.264583"
       d="m 74.186871,162.94408 2.016122,-0.71419 h 29.368747 c 15.12107,0.0316 28.93001,-0.57024 31.42099,0.72631 7.61772,1.36992 17.07142,8.01766 26.97187,17.92681 12.02799,-4.27544 17.47501,-16.00822 16.23587,-28.07532 -1.26821,-16.42206 -7.94339,-30.89872 -17.3301,-50.63791 -0.2558,-0.29104 -0.86606,-1.24354 -1.35614,-2.11666 -1.07367,-1.912873 -4.32912,-5.263212 -6.33312,-6.517715 -4.4836,-2.806742 -9.7497,-4.414827 -15.93482,-4.86595 -3.76472,-0.274587 -4.6286,-0.07808 -6.60436,1.502275 -2.72546,2.180027 -2.35284,2.100676 -8.93498,1.902751 -7.22336,-0.127738 -7.22096,-0.104454 -18.00284,-0.223761 -10.62186,-0.03323 -12.631861,0.0613 -18.138749,0.221562 -6.743629,0.196257 -6.380211,0.272918 -9.116426,-1.923037 -1.942787,-1.559192 -2.803009,-1.753526 -6.551745,-1.480103 -8.506915,0.620467 -15.730143,3.620363 -19.900974,8.265115 -14.000954,26.795463 -19.047858,34.887203 -21.076598,60.599273 -0.144054,6.46056 0.01442,9.88196 3.568317,15.67657 2.575557,3.58053 11.431937,8.36447 14.380504,8.72448 10.945768,-10.11438 13.698114,-14.27712 25.318432,-18.9905 z m -40.967394,4.70406 c -0.52994,-1.59299 -1.1254,-5.12579 -1.137238,-6.79315 0.09337,-2.22746 -0.0052,-0.79363 -0.0052,-3.2808 2.670087,-25.1752 6.325129,-32.39902 20.578002,-57.3176 4.918578,-3.062048 10.287035,-5.115617 17.4625,-6.330983 1.673199,-0.283404 4.898769,-0.43329 10.847917,-0.504087 4.656667,-0.05542 9.387939,-0.159785 10.513936,-0.231931 3.355025,-0.147553 3.822407,-0.06219 8.672336,-0.27415 2.91259,-0.106352 7.79273,-0.05139 10.84792,-2.4e-5 7.49671,0.126042 7.49415,0.126083 15.27881,0.326043 10.82626,0.08744 14.78151,0.423429 19.90687,1.691027 5.51499,1.363961 11.55001,4.390805 15.02306,7.534765 7.15245,15.97399 16.53392,34.81299 17.56427,50.7668 1.08991,14.12171 -6.143,23.77685 -14.71779,26.32605 -7.93608,-8.464 -17.83171,-15.34857 -26.69455,-17.99346 -1.35866,-0.43644 -9.52789,-0.86519 -32.37725,-0.46679 l -29.573697,0.0717 -1.711068,0.63577 c -13.125769,6.00024 -15.608554,10.15507 -25.107102,18.80155 -10.184562,-4.92898 -13.675669,-8.09714 -15.371726,-12.96073 z m 53.752265,-8.48996 c 1.767662,-0.37014 4.626954,-1.8478 6.122043,-3.16383 1.590828,-1.4003 2.979989,-3.50665 3.747719,-5.68257 0.870051,-2.46592 0.916864,-6.13112 0.109713,-8.58983 -1.49297,-4.54781 -5.056037,-7.87476 -9.780011,-9.13192 -5.78869,-1.5405 -12.72653,1.68715 -15.323654,7.12894 -0.868423,1.81961 -1.58523,4.63757 -1.593091,6.26287 -0.0069,1.42604 0.947058,4.86792 1.76647,6.37345 1.338823,2.45987 4.223605,5.10863 6.618383,6.0769 2.415863,0.9768 5.748086,1.26713 8.332428,0.72599 z m -9.048957,-2.50434 c -1.616869,-0.91649 -3.831958,-3.13049 -4.777256,-4.77491 -0.844182,-1.46852 -0.976252,-1.91609 -0.43216,-1.46453 0.191948,0.1593 1.698427,0.32146 3.373438,0.36313 l 3.026603,0.0753 0.132292,3.24172 c 0.07276,1.78295 0.07276,3.24003 0,3.23796 -0.07276,-0.002 -0.668073,-0.30745 -1.322917,-0.67864 z m 10.89038,-2.42733 c 0.09611,-1.71002 0.185409,-3.19142 0.198437,-3.292 0.03341,-0.25798 6.374795,-0.39242 6.374183,-0.13514 -0.0013,0.51491 -1.889974,3.07336 -3.097712,4.19607 -1.049737,0.97583 -3.130323,2.3384 -3.572976,2.33992 -0.04218,1.5e-4 0.0019,-1.39884 0.09807,-3.10885 z m -8.046109,2.55823 c -0.404657,-0.23569 -0.463021,-0.71828 -0.463021,-3.82842 v -3.55872 h -3.556259 c -2.341063,0 -3.618889,-0.10134 -3.739545,-0.29656 -0.253081,-0.4095 -0.282675,-5.22676 -0.03759,-6.11959 l 0.199727,-0.7276 h 3.566834 3.566835 l 0.004,-3.37344 c 0.0021,-1.85539 0.114946,-3.54879 0.250481,-3.76311 0.310655,-0.49123 5.327222,-0.72676 6.426198,-0.30171 l 0.727604,0.28141 v 3.57842 3.57843 h 3.566835 3.566834 l 0.203478,0.7276 c 0.256948,0.9188 0.266848,5.33578 0.01333,5.95313 -0.167865,0.40879 -0.609438,0.46302 -3.770312,0.46302 h -3.580167 v 3.56256 c 0,3.25142 -0.0447,3.58649 -0.511773,3.83646 -0.657953,0.35213 -5.824959,0.34258 -6.43354,-0.0119 z m -8.400521,-15.48157 c 0,-0.5969 1.807289,-3.14717 3.112672,-4.39229 1.216073,-1.15994 3.325149,-2.59189 3.8221,-2.59501 0.04218,-2.7e-4 0.04012,1.48801 -0.0046,3.30729 l -0.08127,3.30777 H 76.30277 c -1.60198,0 -3.142988,0.12325 -3.424462,0.27389 -0.281474,0.15064 -0.511773,0.1949 -0.511773,0.0983 z m 19.645313,-0.30517 -2.976563,-0.0844 -0.01577,-2.04186 c -0.0087,-1.12302 -0.108863,-2.6074 -0.222639,-3.29862 -0.113776,-0.69123 -0.125137,-1.25677 -0.02524,-1.25677 0.479314,0 3.43045,2.16565 4.412049,3.23772 1.311981,1.4329 2.611324,3.75821 2.003171,3.58489 -0.109141,-0.0311 -1.537891,-0.0945 -3.175,-0.14096 z m 38.138312,11.9137 c 1.53782,-0.59421 3.11992,-1.84708 4.23583,-3.35436 3.29417,-4.4495 1.7043,-11.26445 -3.20677,-13.74581 -3.8194,-1.92979 -7.7941,-1.35369 -10.93585,1.58506 -3.63488,3.4 -3.83067,9.25036 -0.43394,12.96692 1.4034,1.53554 3.23173,2.6262 5.03855,3.00565 1.40757,0.29561 3.91259,0.0795 5.30218,-0.45746 z m -6.34219,-1.14792 c -1.89071,-0.72742 -3.37947,-2.10387 -4.32752,-4.00108 -0.69328,-1.38739 -0.81145,-1.91788 -0.80925,-3.63288 0.003,-2.40113 0.71211,-4.17817 2.30101,-5.76706 3.9938,-3.99381 10.6391,-2.87852 13.17122,2.21054 0.64465,1.29561 0.77035,1.87206 0.77035,3.53263 0,1.66057 -0.1257,2.23701 -0.77035,3.53263 -1.90749,3.83367 -6.41597,5.63315 -10.33546,4.12522 z m 5.2812,-1.58375 c 3.27807,-1.22648 4.87427,-4.70228 3.80813,-8.29236 -0.47443,-1.59759 -2.43299,-3.45776 -4.19003,-3.97955 -1.76053,-0.52282 -2.24667,-0.52105 -3.9039,0.0142 -1.80922,0.58431 -3.05801,1.67996 -3.86923,3.39473 -1.70571,3.60557 0.0919,7.83935 3.8199,8.99693 1.67247,0.51931 2.67169,0.48844 4.33513,-0.13393 z m -4.52769,-1.20087 c -1.99233,-1.01647 -3.05526,-2.78109 -3.03725,-5.04229 0.0133,-1.67353 0.50901,-2.67407 1.92544,-3.88648 1.22461,-1.04822 2.55833,-1.3859 4.38931,-1.11133 1.60013,0.23995 3.60506,2.12834 4.05569,3.81994 0.56624,2.12555 -0.3249,4.47302 -2.18823,5.76431 -1.31457,0.91099 -3.81809,1.13281 -5.14496,0.45585 z m 24.7513,-13.27993 c 2.13512,-0.97829 3.31702,-2.886 3.32551,-5.36773 0.007,-2.0842 -0.80767,-3.71889 -2.40138,-4.8177 -4.03014,-2.77867 -9.34329,-0.0299 -9.34329,4.8338 0,4.40344 4.39349,7.19617 8.41916,5.35163 z m -4.17792,-0.88351 c -3.9133,-1.56178 -4.20134,-6.86358 -0.471,-8.6694 3.94101,-1.90781 8.08161,1.87718 6.53089,5.96999 -0.84977,2.24277 -3.85253,3.58037 -6.05989,2.69941 z m 0.25668,-1.82229 c 0.29079,-0.70203 0.45595,-0.79375 1.4293,-0.79375 0.97983,0 1.13337,0.0871 1.40012,0.79375 0.22654,0.60017 0.46653,0.79375 0.98405,0.79375 0.82376,0 0.82518,-0.0184 0.14203,-1.85208 -1.92772,-5.17437 -1.85389,-5.02709 -2.51987,-5.02709 -0.65709,0 -0.94814,0.48452 -1.81112,3.01498 -0.20372,0.59734 -0.61755,1.71114 -0.91964,2.47513 l -0.54924,1.38906 h 0.75779 c 0.59254,0 0.82949,-0.1731 1.08658,-0.79375 z m 0.79375,-2.36403 c 0,-0.44665 0.54093,-1.68114 0.67702,-1.54506 0.0732,0.0732 0.24013,0.50641 0.371,0.96274 0.22013,0.76753 0.18978,0.82968 -0.40504,0.82968 -0.35364,0 -0.64298,-0.11131 -0.64298,-0.24736 z m -37.29759,0.37518 c 0.83612,-0.43238 1.57884,-1.61269 1.57884,-2.50907 0,-0.77663 -0.67996,-2.00696 -1.38028,-2.49748 -0.4539,-0.31792 -1.31262,-0.41293 -3.73214,-0.41293 h -3.14258 l -0.89959,0.89958 c -1.437847,1.43785 -1.21758,3.35409 0.50637,4.40525 1.10113,0.67141 5.84397,0.74833 7.06938,0.11465 z m -6.73664,-1.33734 c -0.57784,-0.57784 -0.51948,-1.86177 0.11339,-2.49464 0.37318,-0.37318 0.88195,-0.52917 1.72589,-0.52917 1.18712,0 1.19354,0.005 0.79894,0.6071 -0.36354,0.55484 -0.35242,0.64594 0.12922,1.05833 0.65577,0.5615 0.6904,0.56049 1.33376,-0.0389 0.46716,-0.43522 0.48074,-0.52778 0.12123,-0.82614 -0.66687,-0.55345 -0.46526,-0.80039 0.65346,-0.80039 1.27596,0 2.11667,0.71934 2.11667,1.81108 0,1.35288 -0.63846,1.6285 -3.77225,1.6285 -2.1968,0 -2.89463,-0.0901 -3.22031,-0.41577 z m 5.93423,-0.90714 c 0,-1.16347 -0.68824,-1.54216 -0.8415,-0.46302 -0.0759,0.53468 -0.25295,0.60333 -1.73819,0.67408 -1.61637,0.077 -1.65365,0.0636 -1.65365,-0.59531 0,-0.4228 -0.14794,-0.67409 -0.39687,-0.67409 -0.28663,0 -0.39688,0.29398 -0.39688,1.05834 v 1.05833 h 2.51354 2.51355 z m -39.941804,-0.12691 c 1.924944,-0.96131 3.297864,-2.31212 4.308104,-4.23872 0.762268,-1.4537 0.83279,-1.79935 0.836708,-4.10104 0.0037,-2.16829 -0.09149,-2.71778 -0.692944,-4.0005 -0.944398,-2.01412 -2.275406,-3.41767 -4.258863,-4.49098 -1.554421,-0.84115 -1.816229,-0.89741 -4.17204,-0.89662 -2.166175,8e-4 -2.721835,0.0981 -4.02074,0.70461 -1.924897,0.89879 -3.76691,2.74216 -4.659326,4.66275 -0.964303,2.0753 -1.01672,5.61034 -0.112271,7.57154 1.216232,2.63726 3.239069,4.45141 5.957602,5.34298 1.796796,0.58928 5.054904,0.32436 6.81377,-0.55402 z m -5.566535,-0.38257 c -1.596747,-0.34357 -2.835717,-0.99827 -4.107365,-2.17043 -3.540699,-3.26371 -3.520136,-8.58364 0.04599,-11.89951 3.183538,-2.96013 8.23658,-2.90161 11.258511,0.13038 3.227633,3.23838 3.25909,8.47308 0.07008,11.66209 -1.78067,1.78067 -4.954072,2.77518 -7.267224,2.27747 z m 4.027028,-2.10463 c 2.43786,-1.04499 3.898852,-3.28765 3.898852,-5.98485 0,-1.84415 -0.586542,-3.33558 -1.781903,-4.53094 -1.357997,-1.358 -2.587574,-1.81906 -4.851156,-1.81906 -1.855346,0 -2.118382,0.0709 -3.329922,0.89779 -2.457275,1.67709 -3.511013,4.49835 -2.726576,7.30009 0.42005,1.50026 2.134804,3.48542 3.558069,4.11913 1.435502,0.63917 3.764616,0.64711 5.232636,0.0178 z m -4.144021,-0.94531 c -1.492639,-0.54658 -2.307061,-1.22203 -3.026423,-2.51001 -1.053571,-1.88637 -0.744345,-4.51833 0.727927,-6.19571 1.271481,-1.44861 4.553516,-2.04483 6.294281,-1.14342 2.048857,1.06093 3.357724,3.95938 2.769944,6.13395 -0.330517,1.22279 -1.617969,2.88896 -2.641137,3.41806 -1.144918,0.59206 -2.961746,0.72294 -4.124592,0.29713 z m 75.715942,-0.0206 c 2.47037,-1.03219 3.77605,-2.9506 3.77605,-5.54807 0,-2.59746 -1.30568,-4.51588 -3.77605,-5.54806 -3.72737,-1.55739 -8.13965,1.54299 -8.12761,5.71105 0.003,1.15264 1.03945,3.34073 2.01447,4.25419 1.58543,1.48531 4.13573,1.9571 6.11314,1.13089 z m -3.35803,-0.96391 c -2.93724,-0.84274 -4.26095,-3.93096 -2.89467,-6.75331 1.02727,-2.12206 4.19704,-3.16437 6.30621,-2.07368 2.88148,1.49007 3.449,5.50773 1.08029,7.64771 -0.56345,0.50905 -1.47937,1.05186 -2.03537,1.20626 -1.16785,0.32429 -1.23471,0.32355 -2.45646,-0.027 z m 0.59061,-2.38429 0.65401,-1.10744 0.69909,1.10744 c 0.51513,0.81602 0.87228,1.10743 1.35723,1.10743 0.36198,0 0.65814,-0.0909 0.65814,-0.20197 0,-0.11108 -0.42626,-0.83494 -0.94726,-1.60857 l -0.94725,-1.40659 0.63793,-0.97112 c 0.35086,-0.53412 0.85035,-1.29855 1.10998,-1.69873 l 0.47205,-0.7276 h -0.76172 c -0.60327,0 -0.89779,0.22015 -1.41581,1.05833 -0.35975,0.58209 -0.72922,1.05834 -0.82105,1.05834 -0.0918,0 -0.48213,-0.47625 -0.86734,-1.05834 -0.50496,-0.76306 -0.88387,-1.05833 -1.35807,-1.05833 -0.36174,0 -0.65771,0.0661 -0.65771,0.14681 0,0.0807 0.46909,0.83756 1.04241,1.68181 l 1.0424,1.53501 -0.60303,0.89787 c -0.33166,0.49383 -0.81443,1.2253 -1.07283,1.62548 l -0.46981,0.7276 h 0.79732 c 0.65553,0 0.91361,-0.19693 1.45132,-1.10743 z m 25.07601,2.89336 c 3.49399,-2.08137 3.9062,-6.85561 0.81999,-9.49728 -2.53035,-2.16589 -5.64334,-2.03886 -8.0196,0.32725 -3.77504,3.75891 -1.18593,10.00199 4.1569,10.02349 1.33842,0.005 1.8346,-0.13379 3.04271,-0.85346 z m -4.37733,-0.51767 c -2.09966,-0.73394 -3.30729,-2.41078 -3.30729,-4.5923 0,-4.63818 6.04523,-6.39581 8.65881,-2.51752 0.71828,1.06585 0.83097,3.57221 0.21424,4.76484 -0.53602,1.03654 -1.82255,2.06256 -2.99429,2.38799 -1.17683,0.32684 -1.53032,0.32092 -2.57147,-0.043 z m 3.86518,-1.76719 c 0.6305,-0.77865 0.63878,-1.64404 0.0219,-2.29377 -0.42092,-0.44335 -0.43566,-0.58996 -0.12245,-1.2178 0.20643,-0.41379 0.28268,-1.00617 0.18144,-1.40954 -0.27591,-1.09932 -1.14134,-1.49704 -3.06006,-1.40629 l -1.67979,0.0795 -0.075,3.15959 c -0.0412,1.73778 -0.0102,3.32831 0.0689,3.53452 0.11164,0.29093 0.59418,0.35217 2.15421,0.27339 1.71921,-0.0868 2.08283,-0.19102 2.51081,-0.71955 z m -3.20372,-1.35316 c 0,-0.79234 0.0401,-0.82238 0.99219,-0.74358 0.86004,0.0712 0.99219,0.17022 0.99219,0.74358 0,0.57337 -0.13215,0.67239 -0.99219,0.74358 -0.95212,0.0788 -0.99219,0.0488 -0.99219,-0.74358 z m 0,-2.91042 c 0,-0.70346 0.0892,-0.79375 0.78444,-0.79375 0.47998,0 0.87687,0.17971 1.02258,0.46302 0.37993,0.73871 0.0701,1.12448 -0.90303,1.12448 -0.82804,0 -0.90399,-0.0667 -0.90399,-0.79375 z m -60.879756,5.00532 c 1.828806,-1.11491 2.631356,-2.97936 2.104229,-4.88846 -1.007766,-3.64983 -6.152412,-4.2371 -7.938781,-0.90622 -1.989915,3.71041 2.286572,7.95768 5.834552,5.79468 z m -3.413995,-0.96004 c -2.037996,-1.04184 -2.333832,-3.49285 -0.608023,-5.03746 1.296326,-1.16022 2.604113,-1.18191 3.877011,-0.0643 2.721464,2.38948 -0.06572,6.73929 -3.268988,5.10175 z m 3.439583,-2.32548 v -1.19063 h -1.433161 c -0.898964,0 -1.482902,0.12328 -1.566611,0.33073 -0.0734,0.1819 -0.142851,0.0496 -0.154339,-0.29403 -0.01916,-0.57306 0.05574,-0.61038 0.905153,-0.45103 0.813117,0.15254 0.926041,0.10773 0.926041,-0.36743 0,-0.47956 -0.165642,-0.54116 -1.455208,-0.54116 h -1.455208 v 1.22147 c 0,1.16023 0.03316,1.21513 0.661458,1.09503 0.580901,-0.11105 0.661458,-0.0343 0.661458,0.63061 0,0.74126 0.03037,0.75706 1.455209,0.75706 h 1.455208 z m -1.933085,0.22767 c -0.24692,-0.24692 0.05147,-0.62455 0.493492,-0.62455 0.209693,0 0.38126,0.17859 0.38126,0.39688 0,0.39852 -0.558533,0.54389 -0.874752,0.22767 z m 25.133903,3.17056 c 1.78297,-0.84608 2.87854,-3.43699 2.19027,-5.1798 -0.74147,-1.87754 -2.16376,-2.84864 -4.17215,-2.84864 -3.21766,0 -5.28657,3.47484 -3.69733,6.20988 1.22072,2.10085 3.52763,2.83955 5.67921,1.81856 z m -2.98263,-0.99619 c -1.77019,-0.77074 -2.56849,-3.13812 -1.549,-4.59364 1.30109,-1.85757 4.26561,-1.7459 5.27112,0.19856 0.89941,1.73926 0.1985,3.64697 -1.61894,4.40635 -1.04832,0.43801 -1.07158,0.43789 -2.10318,-0.0113 z m 3.06515,-1.87288 c 0,-0.3175 -0.39688,-0.39687 -1.98438,-0.39687 -1.5875,0 -1.98437,0.0794 -1.98437,0.39687 0,0.3175 0.39687,0.39688 1.98437,0.39688 1.5875,0 1.98438,-0.0794 1.98438,-0.39688 z m 0,-1.05833 c 0,-0.3175 -0.39688,-0.39688 -1.98438,-0.39688 -1.5875,0 -1.98437,0.0794 -1.98437,0.39688 0,0.3175 0.39687,0.39687 1.98437,0.39687 1.5875,0 1.98438,-0.0794 1.98438,-0.39687 z m 0,-1.05833 c 0,-0.3175 -0.39688,-0.39688 -1.98438,-0.39688 -1.5875,0 -1.98437,0.0794 -1.98437,0.39688 0,0.3175 0.39687,0.39687 1.98437,0.39687 1.5875,0 1.98438,-0.0794 1.98438,-0.39687 z m 29.35296,-3.6986 c 1.61476,-0.56972 2.56597,-1.33562 3.37653,-2.71875 0.58515,-0.99848 0.71586,-1.54249 0.71101,-2.95927 -0.007,-1.95325 -0.39715,-2.90164 -1.73755,-4.22025 -1.18738,-1.16808 -2.36089,-1.61668 -4.22914,-1.61668 -3.38213,0 -5.78643,2.44858 -5.77217,5.87848 0.007,1.79978 0.71203,3.33079 2.04954,4.45369 1.82306,1.53055 3.5704,1.89949 5.60178,1.18278 z m -3.84147,-1.43335 c -2.6428,-1.2003 -3.52613,-4.46093 -1.85988,-6.86534 2.67112,-3.85441 8.62755,-2.02805 8.62755,2.64539 0,3.52069 -3.50089,5.70365 -6.76767,4.21995 z m 2.79892,-1.77953 c 0,-0.92518 0.25768,-1.69797 1.05834,-3.17404 0.58208,-1.07311 1.05833,-2.01107 1.05833,-2.08436 0,-0.0733 -0.33684,-0.13325 -0.74852,-0.13325 -0.63922,0 -0.839,0.19318 -1.36815,1.32292 -0.34079,0.7276 -0.68856,1.32049 -0.77283,1.31754 -0.0843,-0.003 -0.4234,-0.59828 -0.75362,-1.32292 -0.52503,-1.1521 -0.69962,-1.31754 -1.39042,-1.31754 h -0.79001 l 1.19198,2.20456 c 0.86963,1.60836 1.19199,2.50278 1.19199,3.30729 0,0.99986 0.0617,1.10273 0.66145,1.10273 0.61016,0 0.66146,-0.0949 0.66146,-1.22293 z m -38.88759,-1.95521 c 1.38254,-0.70532 3.03553,-2.67674 3.43214,-4.09332 1.26553,-4.52002 -2.41969,-9.001157 -7.01259,-8.527127 -3.57293,0.368758 -6.050159,3.091466 -6.069064,6.670467 -0.01074,2.03435 0.856676,3.82906 2.522164,5.21839 1.89464,1.5805 4.86559,1.88545 7.12735,0.73159 z m -5.19992,-0.90713 c -1.64696,-0.71673 -1.51654,-1.51306 0.63005,-3.84696 l 1.53278,-1.66653 1.41386,1.54699 c 1.57803,1.72661 2.02945,2.52249 1.78787,3.15206 -0.40596,1.0579 -3.66734,1.55304 -5.36456,0.81444 z m 6.66258,-4.35122 c -0.255,-0.56549 -0.81081,-1.54776 -1.23512,-2.18281 l -0.77149,-1.15465 0.68492,-0.5991 c 0.81147,-0.709782 1.01451,-0.621996 1.70874,0.7388 0.5367,1.05202 0.76275,4.22592 0.30098,4.22592 -0.12342,0 -0.43303,-0.46267 -0.68803,-1.02816 z m -9.92967,-0.62548 c 0.005,-1.30965 0.69691,-3.38702 1.23881,-3.72193 0.13276,-0.08205 0.55606,0.111617 0.94065,0.43038 l 0.69925,0.57957 -1.24382,2.04079 c -0.68411,1.12244 -1.33313,2.04518 -1.44227,2.05052 -0.10914,0.005 -0.19582,-0.61535 -0.19262,-1.37933 z m 7.57136,-0.0646 c -1.79352,-2.07743 -2.2564,-2.11918 -4.06554,-0.36672 -1.59941,1.54929 -1.59496,1.42635 0.0335,-0.9254 l 1.07686,-1.55516 -1.03217,-0.892238 c -1.17125,-1.012476 -0.98057,-1.115941 0.7162,-0.388617 1.15505,0.495109 1.19393,0.495109 2.29979,0 1.52611,-0.68326 1.57387,-0.646404 0.54198,0.41824 l -0.89351,0.921865 0.79412,1.12866 c 0.99147,1.40915 2.02439,3.11303 1.88717,3.11303 -0.0569,0 -0.66816,-0.65415 -1.35841,-1.45366 z m -2.56667,-5.171173 c -0.29557,-0.182668 -0.27493,-0.260614 0.10792,-0.407527 0.26037,-0.09991 0.59246,-0.0626 0.73798,0.08293 0.35466,0.354663 -0.35601,0.627372 -0.8459,0.324601 z m -53.693839,1.099021 c 0,-0.518597 3.471685,-3.766047 5.269167,-4.928833 3.619465,-2.341419 8.631685,-3.9894 13.648542,-4.487534 4.787466,-0.475361 5.775997,-0.335127 7.291951,1.034449 l 0.944986,0.853737 -4.212371,0.327345 c -5.563319,0.432329 -8.835271,1.063244 -13.417275,2.587183 -2.25824,0.751072 -6.623383,2.876854 -8.357796,4.070162 -0.641964,0.441679 -1.167204,0.686252 -1.167204,0.543491 z M 157.82695,98.447814 c -5.48927,-3.508068 -12.4142,-5.552646 -21.09019,-6.226862 l -4.21237,-0.327345 1.0053,-0.908228 c 1.31205,-1.185362 2.18344,-1.352497 5.66468,-1.086524 7.39687,0.565131 13.21922,2.67095 17.60137,6.366028 1.29106,1.088641 3.05713,3.131246 2.69733,3.119691 -0.116,-0.0037 -0.86575,-0.425267 -1.66612,-0.93676 z"
       id="path302"
       sodipodi:nodetypes="cccccccsssscccsscccccccccsccsccscccccscccssssssssssssscscsssccsssscccsssccccsscccccssscssccccsccsscccscssssscssssssssscssssssssssssssssssssssssssssssssssssscssssssssssscsssssscssssssssssssscccsssssscsssssscssssscssssssccsssssssssscssssssssssssssscsscssssssscsscssssscsssssssssssscccssssssssssssssssssscssscssssssscssssccssssscssscsssccssssssssssssssssscsscssssssssssscsscsssssssssssscssssccsssscsscsccssscsssscssssssssssssscsssssscssssss" /><path
       d="m 179.12485,125.10697 c -0.39572,-0.50308 -0.52485,-0.94444 -0.42394,-1.44902 0.0798,-0.39907 0.4458,-1.17994 0.81331,-1.73527 0.3675,-0.55534 0.92258,-2.01573 1.23352,-3.24532 l 0.56534,-2.23563 -0.15143,-2.38327 c -0.0833,-1.3108 -0.40081,-3.33577 -0.7056,-4.49994 -0.30479,-1.16416 -0.49339,-2.36414 -0.41912,-2.66662 0.0743,-0.30247 0.44115,-0.68941 0.81529,-0.85989 0.46584,-0.21226 2.91668,-0.30995 7.77587,-0.30995 h 7.09562 l 0.67663,0.53224 c 0.49698,0.39092 0.78745,1.01948 1.09401,2.36734 0.54879,2.41283 0.55307,7.26787 0.008,9.14263 -0.22513,0.77441 -0.86242,2.10906 -1.41621,2.96588 -0.55379,0.85682 -1.47092,1.94292 -2.03807,2.41355 -0.56715,0.47063 -1.85085,1.26767 -2.85267,1.7712 l -1.82149,0.9155 h -4.84004 -4.84003 z m 11.51831,-1.49554 c 1.09745,-0.53311 2.34837,-1.41726 3.08829,-2.18282 0.68402,-0.70771 1.56793,-1.99752 1.96423,-2.86622 l 0.72056,-1.57947 0.11872,-2.66945 c 0.13149,-2.95641 -0.31006,-6.2717 -0.916,-6.87764 l -0.39085,-0.39085 -6.66183,0.004 c -3.66401,0.002 -6.79574,0.0915 -6.9594,0.19845 -0.2134,0.13939 -0.12373,0.86793 0.31702,2.57563 0.42619,1.65132 0.61759,3.15172 0.62438,4.89479 0.005,1.38244 -0.17254,3.28744 -0.39539,4.23333 -0.22286,0.9459 -0.81853,2.47188 -1.32371,3.3911 -0.50518,0.91922 -0.84984,1.78242 -0.7659,1.91823 0.0843,0.13642 2.07306,0.24692 4.44393,0.24692 h 4.29133 z m -6.04878,-5.89492 c -0.097,-0.097 -0.17639,-1.34717 -0.17639,-2.77813 v -2.60173 h 1.70059 1.70058 l 0.54541,0.69336 c 0.38304,0.48697 0.49604,0.90046 0.37959,1.38907 -0.0912,0.38263 -0.28741,0.8498 -0.43603,1.03815 -0.19229,0.24368 -0.10056,0.64434 0.31799,1.38906 l 0.58823,1.04661 h -0.76902 -0.76901 l -0.49871,-0.92604 c -0.28138,-0.5225 -0.70309,-0.92605 -0.96771,-0.92605 -0.35961,0 -0.469,0.21599 -0.469,0.92605 v 0.92604 h -0.48506 c -0.26679,0 -0.56445,-0.0794 -0.66146,-0.17639 z m 2.73123,-3.12754 c 0.50492,-0.60839 0.12106,-1.19398 -0.78265,-1.19398 h -0.80206 v 0.79374 0.79375 h 0.62907 c 0.34598,0 0.77602,-0.17708 0.95564,-0.39351 z m 3.70696,1.07337 v -2.26735 h -0.92604 -0.92604 v -0.52918 -0.52916 h 2.38125 2.38125 v 0.52916 c 0,0.40997 -0.17639,0.52918 -0.78305,0.52918 h -0.78305 l -0.0769,2.1828 -0.0769,2.18283 -0.59531,0.0845 -0.59532,0.0846 z"
       style="fill:#ffffff;stroke-width:0.264583"
       id="path932" /><path
       d="m 177.85552,103.19172 c -0.31653,-0.22171 -0.94435,-1.36787 -1.41304,-2.57969 -0.60971,-1.576394 -0.88199,-2.789135 -0.98256,-4.376286 l -0.13913,-2.195588 2.48549,-2.473126 2.48549,-2.47313 1.42201,-0.18927 c 2.10256,-0.27987 6.66048,0.0859 9.84879,0.79031 1.70267,0.37619 3.52142,0.98864 4.63021,1.55918 1.00434,0.51679 2.10124,1.15847 2.43757,1.425942 l 0.61149,0.486317 0.52336,3.823089 c 0.28785,2.102708 0.45473,4.204892 0.37086,4.671532 -0.0839,0.46664 -0.46179,1.09172 -0.83981,1.38906 l -0.6873,0.54063 h -10.09191 -10.0919 z m 20.69741,-1.73315 c 0.21693,-0.6835 -0.64829,-7.136407 -1.02076,-7.612864 -0.46723,-0.597707 -3.2256,-1.864566 -5.25499,-2.413516 -1.06219,-0.28732 -2.94015,-0.64575 -4.17326,-0.79651 -1.23311,-0.15076 -3.30277,-0.27411 -4.59925,-0.27411 h -2.35723 l -2.14763,2.10489 -2.14762,2.104893 0.0457,1.196711 c 0.0498,1.302924 0.64957,3.673652 1.32647,5.242946 l 0.42796,0.99218 h 9.86386 9.86387 z m -14.95387,-5.143899 v -2.778102 h 1.53761 c 1.18168,0 1.67165,0.124867 2.11667,0.539467 0.32339,0.301287 0.57905,0.859384 0.57905,1.264041 0,0.39851 -0.1795,0.980834 -0.39889,1.294054 l -0.39889,0.569497 0.55732,0.944574 0.55732,0.944584 h -0.75972 -0.75972 l -0.50426,-0.936344 c -0.62535,-1.161214 -1.30256,-1.123694 -1.41877,0.0786 -0.0622,0.643437 -0.21093,0.857724 -0.59532,0.857724 h -0.5124 z m 2.77813,-0.926034 V 94.72718 l -0.8599,-0.0829 -0.8599,-0.0829 v 0.827277 0.827277 l 0.8599,-0.0829 0.8599,-0.0829 z m 2.51354,0.926034 v -2.778102 h 1.79916 c 1.04658,0 1.93198,0.132807 2.11667,0.317497 0.37164,0.371637 0.41211,1.504611 0.0729,2.040498 -0.15347,0.24244 -0.10559,0.504567 0.13634,0.746497 0.20508,0.205077 0.37287,0.653517 0.37287,0.996524 0,0.343007 -0.1871,0.810754 -0.41578,1.039424 -0.29796,0.297967 -0.9352,0.415777 -2.24896,0.415777 h -1.83318 z m 3.08956,1.296214 c 0.0894,-0.23297 -0.004,-0.528807 -0.20674,-0.657407 -0.2031,-0.128607 -0.63717,-0.235647 -0.96459,-0.237877 -0.4597,-0.003 -0.59532,0.146637 -0.59532,0.657404 v 0.661447 h 0.80206 c 0.49133,0 0.86502,-0.164087 0.96459,-0.423567 z m -0.085,-2.623155 c -0.0852,-0.22213 -0.48336,-0.392837 -0.91619,-0.392837 -0.57934,0 -0.76544,0.123937 -0.76544,0.509767 0,0.280367 0.20836,0.557207 0.46302,0.615187 0.6792,0.154657 1.39409,-0.27484 1.21861,-0.732117 z"
       style="fill:#ffffff;stroke-width:0.264583"
       id="path955" /><path
       d="m 20.6384,125.37425 c -1.532361,-0.56341 -3.686209,-2.05495 -4.93722,-3.41903 -0.631087,-0.68812 -1.419247,-1.86766 -1.751467,-2.6212 -0.33221,-0.75353 -0.7386,-2.001 -0.90308,-2.77215 -0.36892,-1.72969 -0.37976,-4.13608 -0.0288,-6.40315 0.38208,-2.46842 0.94724,-3.83579 1.73348,-4.19402 0.44934,-0.20473 2.984955,-0.30393 7.768998,-0.30393 h 7.101938 l 0.582907,0.47201 c 0.3206,0.25961 0.588317,0.76564 0.594927,1.12449 0.007,0.35886 -0.242507,1.59426 -0.553597,2.74533 -0.403847,1.49429 -0.564717,2.85639 -0.562467,4.76253 0.002,1.46832 0.16357,3.26497 0.35965,3.99258 0.396197,1.47016 1.422791,3.76413 1.784588,3.98774 0.12862,0.0795 0.23386,0.55422 0.23386,1.05496 0,0.55765 -0.20505,1.11547 -0.529167,1.43959 l -0.529167,0.52917 -4.696323,-0.0187 c -3.247622,-0.0129 -4.996383,-0.12896 -5.66902,-0.37627 z m 9.979806,-1.21092 c 0.0962,-0.1556 -0.25681,-1.13787 -0.784397,-2.18281 -0.585077,-1.15881 -1.125154,-2.77713 -1.384571,-4.14885 l -0.425317,-2.24896 0.303747,-2.64585 c 0.16706,-1.45522 0.482747,-3.23833 0.701517,-3.96246 0.218767,-0.72413 0.339567,-1.46827 0.268427,-1.65365 -0.10015,-0.26101 -1.675871,-0.33705 -6.984371,-0.33705 -5.27707,0 -6.920281,0.0786 -7.138488,0.34155 -0.52072,0.62742 -0.85632,2.87006 -0.89418,5.97528 l -0.0375,3.07593 0.58377,1.49352 c 0.32108,0.82144 0.936897,1.98101 1.368494,2.57681 0.431597,0.59581 1.350451,1.4997 2.041908,2.00866 0.691457,0.50896 1.852501,1.1589 2.580105,1.44431 l 1.322904,0.51892 4.151546,0.0138 c 2.676125,0.009 4.213696,-0.0868 4.326406,-0.26914 z m -12.578971,-9.1098 v -2.77813 h 0.661457 0.661457 v 2.11667 2.11668 h 1.322901 1.322914 v 0.66146 0.66146 h -1.984358 -1.984371 z m 5.027053,0.52918 v -2.24898 h -0.926034 -0.926037 v -0.52917 -0.52916 h 2.381238 2.381235 v 0.52916 0.52917 h -0.926034 -0.926034 v 2.24898 2.24896 h -0.529167 -0.529167 z"
       style="fill:#ffffff;stroke-width:0.264583"
       id="path978" /><path
       style="fill:#ffffff;stroke-width:0.264583"
       d="m 11.884907,103.05378 c -0.38475,-0.20902 -0.82655,-0.74436 -0.98178,-1.18966 -0.21539,-0.61786 -0.15332,-1.76303 0.26205,-4.834902 l 0.54428,-4.025262 0.56979,-0.47297 c 1.12905,-0.93721 4.053447,-2.25035 6.258327,-2.81015 2.796937,-0.710127 8.597324,-1.232514 10.712084,-0.964754 l 1.583967,0.200557 2.28069,2.288247 c 1.76413,1.76996 2.32092,2.5074 2.458307,3.25585 0.20234,1.102317 -0.394487,4.333813 -1.196137,6.476414 -0.28963,0.7741 -0.83277,1.6483 -1.20699,1.94265 l -0.68038,0.53519 -9.952334,-0.0106 -9.952334,-0.0106 z m 20.639118,-1.64931 c 0.50678,-0.95094 1.3217,-3.773525 1.49886,-5.191537 l 0.18334,-1.4674 -1.55048,-1.655177 c -0.85276,-0.91035 -1.672,-1.78941 -1.82052,-1.95348 -0.61599,-0.68046 -1.532747,-0.91104 -3.622107,-0.91104 -2.874987,0 -6.200477,0.41544 -8.666254,1.08264 -1.0863,0.29394 -2.67548,0.90774 -3.53152,1.364 -0.856037,0.45627 -1.647147,1.07469 -1.758027,1.37428 -0.11088,0.29959 -0.40748,2.008077 -0.65911,3.796649 l -0.4575,3.251935 0.32041,0.38608 0.32042,0.38607 h 9.747864 9.747874 z M 18.802154,96.178953 v -2.778117 h 0.66146 0.661457 v 2.248957 2.248949 h 1.32291 1.32292 v 0.529167 0.529177 h -1.98437 -1.984377 z m 4.762497,0 v -2.778117 h 1.819687 c 1.29637,0 1.9146,0.11437 2.14974,0.39769 0.39912,0.48091 0.43318,1.655527 0.0589,2.029857 -0.18521,0.18521 -0.1118,0.43059 0.23151,0.773908 0.27649,0.276477 0.50271,0.681297 0.50271,0.899584 0,0.21828 -0.23812,0.634997 -0.52917,0.926034 l -0.52916,0.529177 h -1.85209 -1.852077 z m 3.089567,1.296222 c 0.0894,-0.232977 -0.004,-0.528817 -0.20674,-0.657414 -0.20311,-0.12861 -0.63718,-0.23565 -0.9646,-0.23788 -0.45969,-0.003 -0.59531,0.14664 -0.59531,0.657407 v 0.661454 h 0.80205 c 0.49133,0 0.86503,-0.164087 0.9646,-0.423567 z m -0.18877,-2.078382 c 0.17587,-0.2119 0.24295,-0.50956 0.14907,-0.66146 -0.0939,-0.151887 -0.52084,-0.276167 -0.94882,-0.276167 h -0.77813 v 0.661457 0.66146 h 0.62906 c 0.34598,0 0.77295,-0.17338 0.94882,-0.38529 z"
       id="path922"
       sodipodi:nodetypes="ssscssscsssscccssscssssssscccccscccccccccccccccssssssccccsccscssssscccss" /></g></svg>
