<?xml version="1.0" encoding="UTF-8" standalone="no"?>
<!-- Created with Inkscape (http://www.inkscape.org/) -->

<svg
   width="196.32083mm"
   height="123.08006mm"
   viewBox="0 0 196.32083 123.08006"
   version="1.1"
   id="svg5"
   xml:space="preserve"
   inkscape:version="1.2.2 (732a01da63, 2022-12-09)"
   sodipodi:docname="logo.svg"
   xmlns:inkscape="http://www.inkscape.org/namespaces/inkscape"
   xmlns:sodipodi="http://sodipodi.sourceforge.net/DTD/sodipodi-0.dtd"
   xmlns="http://www.w3.org/2000/svg"
   xmlns:svg="http://www.w3.org/2000/svg"><sodipodi:namedview
     id="namedview7"
     pagecolor="#ffffff"
     bordercolor="#999999"
     borderopacity="1"
     inkscape:showpageshadow="0"
     inkscape:pageopacity="0"
     inkscape:pagecheckerboard="0"
     inkscape:deskcolor="#d1d1d1"
     inkscape:document-units="mm"
     showgrid="false"
     inkscape:zoom="0.89187976"
     inkscape:cx="564.53798"
     inkscape:cy="376.7324"
     inkscape:window-width="1920"
     inkscape:window-height="1009"
     inkscape:window-x="-8"
     inkscape:window-y="-8"
     inkscape:window-maximized="1"
     inkscape:current-layer="layer1" /><defs
     id="defs2" /><g
     inkscape:label="Calque 1"
     inkscape:groupmode="layer"
     id="layer1"
     transform="translate(-7.633335,-12.468746)"><path
       style="fill:#808080;fill-opacity:1;stroke-width:0.264583"
       d="m 7.7166578,75.045482 c 0,-27.87 0.06147,-33.39601 0.400251,-35.98037 0.917272,-6.99734 3.7462132,-12.82552 8.5637922,-17.6431 4.81758,-4.81758 10.645759,-7.64652 17.643109,-8.56379 4.56761,-0.59876 138.53893,-0.59876 143.10654,0 6.99734,0.91727 12.82552,3.74621 17.6431,8.56379 4.81758,4.81758 7.64652,10.64576 8.56379,17.6431 0.33879,2.58436 0.40025,8.11037 0.40025,35.98037 V 167.76839 H 75.44999 7.7166578 Z"
       id="path402-2"
       sodipodi:nodetypes="sssssssscccs" /><path
       style="fill:#ff000c;fill-opacity:1;stroke-width:0.264583"
       d="m 10.808335,76.692576 c 0,-27.87 0.06147,-33.39601 0.400251,-35.98037 0.917272,-6.99734 3.746213,-12.296353 8.563792,-17.113933 4.81758,-4.81758 7.470756,-7.117353 14.468106,-8.034623 4.56761,-0.59876 138.538926,-0.59876 143.106536,0 6.99734,0.91727 12.82552,1.100373 17.6431,5.917956 4.81758,4.81758 7.64652,10.64576 8.56379,17.6431 0.33879,2.58436 0.40025,8.11037 0.40025,35.98037 V 167.82798 H 75.366664 10.808335 Z"
       id="path402"
       sodipodi:nodetypes="sssssssscccs" /><path
       style="fill:#ffffff;fill-opacity:1;stroke-width:0.264583"
       d="m 91.917627,163.03176 c -0.7394,-0.35742 -24.9651,-25.68521 -25.4539,-26.61185 -0.87914,-1.66665 -0.27459,-3.51212 1.5594,-4.76025 l 0.87936,-0.59846 9.94423,0.0693 9.94424,0.0693 0.13229,6.53954 c 0.11766,5.81658 0.18451,6.59172 0.60463,7.01147 0.44063,0.44026 1.50629,0.47699 15.875003,0.5472 8.47146,0.0414 15.67358,0.009 16.0047,-0.0729 0.33113,-0.0815 0.83714,-0.38324 1.12448,-0.67058 0.49176,-0.49176 0.52244,-0.90305 0.52244,-7.00474 v -6.4823 h 9.66579 c 10.41925,0 10.73377,0.037 12.0019,1.41249 0.78162,0.84776 1.05824,2.93968 0.52091,3.93939 -0.56513,1.05147 -24.49451,25.94607 -25.43827,26.46436 -0.77257,0.42426 -1.95044,0.46151 -14.07641,0.4451 -8.705155,-0.0118 -13.430903,-0.11343 -13.810793,-0.29706 z m 5.444048,-24.95199 c -0.37934,-0.20618 -0.91512,-0.70743 -1.19063,-1.11389 -0.46301,-0.68308 -0.50093,-1.31981 -0.50093,-8.41194 0,-7.09954 0.0375,-7.7283 0.50231,-8.41404 0.98886,-1.459 1.30256,-1.50785 9.684155,-1.50785 8.45802,0 8.87132,0.0676 9.65281,1.57885 0.33131,0.64067 0.40136,2.09686 0.40136,8.34304 0,8.31363 -0.0708,8.7407 -1.57884,9.52053 -1.10545,0.57165 -15.919745,0.57627 -16.970235,0.005 z M 68.023127,125.71281 c -1.83366,-1.24792 -2.43907,-3.09526 -1.5594,-4.75834 0.67995,-1.2855 24.87012,-26.358053 25.7144,-26.652363 0.50935,-0.17756 5.423648,-0.27638 13.744093,-0.27638 11.00693,0 13.07643,0.06 13.785,0.39959 0.88796,0.42558 24.92662,25.400023 25.53588,26.529943 0.53752,0.99685 0.26064,3.08955 -0.52091,3.93725 -1.26813,1.37546 -1.58265,1.41247 -12.0019,1.41247 H 123.0545 V 119.852 c 0,-5.95937 -0.0387,-6.5008 -0.50579,-7.07764 l -0.50579,-0.62464 H 106.0217 c -15.020503,0 -16.050733,0.0295 -16.493693,0.47194 -0.42029,0.41981 -0.48708,1.19412 -0.60476,7.0115 l -0.13229,6.53953 -9.94424,0.0693 -9.94423,0.0693 z"
       id="path304"
       sodipodi:nodetypes="ssscccssscsscssssssscsscssssccsssssssscsscssscccs" /><text
       xml:space="preserve"
       style="font-weight:bold;font-size:109.82px;font-family:'Berlin Sans FB';-inkscape-font-specification:'Berlin Sans FB Bold';fill:#ffffff;fill-opacity:1;stroke:#ffffff;stroke-width:0.627582;stroke-linejoin:round"
       x="9.3701172"
       y="199.30605"
       id="text1945"
       transform="scale(1.2476523,0.80150536)"><tspan
         sodipodi:role="line"
         id="tspan1943"
         style="font-style:normal;font-variant:normal;font-weight:bold;font-stretch:condensed;font-size:109.82px;font-family:Bahnschrift;-inkscape-font-specification:'Bahnschrift Bold Condensed';stroke-width:0.627582"
         x="9.3701172"
         y="199.30605">F</tspan></text><text
       xml:space="preserve"
       style="font-weight:bold;font-size:101.782px;font-family:'Berlin Sans FB';-inkscape-font-specification:'Berlin Sans FB Bold';fill:#ffffff;fill-opacity:1;stroke:#ffffff;stroke-width:0.581647;stroke-linejoin:round"
       x="125.0198"
       y="183.48132"
       id="text1945-3"
       transform="scale(1.1554715,0.86544757)"><tspan
         sodipodi:role="line"
         id="tspan1943-9"
         style="font-style:normal;font-variant:normal;font-weight:bold;font-stretch:condensed;font-size:101.782px;font-family:Bahnschrift;-inkscape-font-specification:'Bahnschrift Bold Condensed';stroke-width:0.581647"
         x="125.0198"
         y="183.48132">C</tspan></text><text
       xml:space="preserve"
       style="font-style:normal;font-variant:normal;font-weight:900;font-stretch:normal;font-size:61.1973px;font-family:Arial;-inkscape-font-specification:'Arial Heavy';fill:#ffffff;fill-opacity:1;stroke:#ffffff;stroke-width:0.485724;stroke-linejoin:round"
       x="25.960321"
       y="87.753235"
       id="text2036"
       transform="scale(1.1969953,0.83542517)"><tspan
         sodipodi:role="line"
         id="tspan2034"
         style="font-style:normal;font-variant:normal;font-weight:bold;font-stretch:normal;font-size:61.1973px;font-family:Bahnschrift;-inkscape-font-specification:'Bahnschrift Bold';stroke-width:0.485724"
         x="25.960321"
         y="87.753235">MINI</tspan></text></g></svg>
